/* XPM */
static char * close_pressed_xpm[] = {
"16 12 6 1",
"#	c #3E5C2C",
";	c #3E5C2C",
"$	c #f0f0f0",
"-	c #373737",
"@	c #9C9C9C",
":	c #808080",
";;;;;;;;;;;;;;;;",
";;;;;;;;;;;;;;;;",
";;;$$;;;;;;$$;;;",
";;;;$$;;;;$$;;;;",
";;;;;$$;;$$;;;;;",
";;;;;;$$$$;;;;;;",
";;;;;;$$$$;;;;;;",
";;;;;$$;;$$;;;;;",
";;;;$$;;;;$$;;;;",
";;;$$;;;;;;$$;;;",
";;;;;;;;;;;;;;;;",
";;;;;;;;;;;;;;;;"
};
