/* XPM */
static char * lback_hovered_xpm[] = {
"16 12 4 1",
" 	c None",
".	c #383838",
"#	c #F0F0F0",
"$	c #759164",
"$$$$$$$$$$$$$$$$",
"$$$$$$$$$$$$$$$$",
"$$$$$$$$$$$$$$$$",
"$$$$$$########$$",
"$$$$$$#$$$$$$#$$",
"$$$$$$########$$",
"$$$$$$#$$$$$$#$$",
"$$$$$$#$$$$$$#$$",
"$$$$$$#$$$$$$#$$",
"$$$$$$########$$",
"$$$$$$$$$$$$$$$$",
"$$$$$$$$$$$$$$$$"
};
