/* XPM */
static char * min_pressed_xpm[] = {
"16 12 2 1",
"@	c #617953",
"$	c #f0f0f0",
"@@@@@@@@@@@@@@@@",
"@@@@@@@@@@@@@@@@",
"@@@@@@@@@@@@@@@@",
"@@@@$$$$$$$$@@@@",
"@@@@@$$$$$$@@@@@",
"@@@@@@$$$$@@@@@@",
"@@@@@@@$$@@@@@@@",
"@@@@@@@@@@@@@@@@",
"@@$$$$$$$$$$$$@@",
"@@$@@@@@@@@@@$@@",
"@@$$$$$$$$$$$$@@",
"@@@@@@@@@@@@@@@@"
};
