/* XPM */
static char * stick_pressed_xpm[] = {
"16 12 2 1",
"#	c #F0F0F0",
"%	c #4D6B3B",
"%%%%%%%%%%%%%%%%",
"%%%#%%%%%%%%#%%%",
"%%%%#%%%%%%#%%%%",
"%%%%%######%%%%%",
"%%%%%#%%%%#%%%%%",
"%%%%%#%##%#%%%%%",
"%%%%%#%##%#%%%%%",
"%%%%%#%%%%#%%%%%",
"%%%%%######%%%%%",
"%%%%#%%%%%%#%%%%",
"%%%#%%%%%%%%#%%%",
"%%%%%%%%%%%%%%%%"
};
