/* XPM */
static char * unmax_pressed_xpm[] = {
"16 12 2 1",
"#	c #4D6B3B",
"$	c #f0f0f0",
"################",
"######$$$$$$$$$#",
"##$###$#######$#",
"##$$##$$$$$$$$$#",
"##$$$#$#######$#",
"##$$##$#######$#",
"##$###$#######$#",
"######$$$$$$$$$#",
"##########$#####",
"#########$$$####",
"########$$$$$###",
"################"
};
