/* XPM */
static char *find_32x32[] = {
/* columns rows colors chars-per-pixel */
"32 32 179 2 ",
"   c #0D0C0A",
".  c #120F0E",
"X  c #161411",
"o  c #191613",
"O  c #1C1A16",
"+  c #231E1A",
"@  c #26221C",
"#  c #29251F",
"$  c #1C2531",
"%  c #2A2521",
"&  c #2E2925",
"*  c #242321",
"=  c #312D27",
"-  c #36322B",
";  c #3B352D",
":  c #262D3A",
">  c #2F3233",
",  c #373632",
"<  c #443E35",
"1  c #474138",
"2  c #4C443B",
"3  c #51493E",
"4  c #222949",
"5  c #212645",
"6  c #26314F",
"7  c #363D47",
"8  c #3B3F41",
"9  c #263757",
"0  c #2C3455",
"q  c #283954",
"w  c #2B3C5A",
"e  c #29395A",
"r  c #323F50",
"t  c #32395D",
"y  c #1B3D6E",
"u  c #1C3E70",
"i  c #2C3C62",
"p  c #383E63",
"a  c #3A444B",
"s  c #2C405E",
"d  c #324155",
"f  c #30425E",
"g  c #3C4858",
"h  c #3A4454",
"j  c #1E4073",
"k  c #1D487F",
"l  c #1E457C",
"z  c #2D446B",
"x  c #2F486C",
"c  c #24416B",
"v  c #324564",
"b  c #32456D",
"n  c #394C6C",
"m  c #3B4967",
"M  c #22447A",
"N  c #2B457D",
"B  c #214172",
"V  c #304B70",
"C  c #3B4877",
"Z  c #3D5476",
"A  c #3E567B",
"S  c #404140",
"D  c #564E43",
"F  c #5D5448",
"G  c #484D50",
"H  c #434D58",
"J  c #46525E",
"K  c #665C4E",
"L  c #61574B",
"P  c #6A5F52",
"I  c #6E6558",
"U  c #6D6254",
"Y  c #404269",
"T  c #4D5861",
"R  c #4A596A",
"E  c #465363",
"W  c #4B4D78",
"Q  c #445474",
"!  c #4D5D76",
"~  c #455A7D",
"^  c #45557B",
"/  c #7E7266",
"(  c #8C8172",
")  c #224B86",
"_  c #274F8D",
"`  c #334A85",
"'  c #374A8A",
"]  c #24508F",
"[  c #3F5783",
"{  c #3A508E",
"}  c #28569A",
"|  c #29599F",
" . c #26579A",
".. c #30599A",
"X. c #2C5FA9",
"o. c #2A5DA4",
"O. c #345FA5",
"+. c #2D61AD",
"@. c #3D65AE",
"#. c #2E65B3",
"$. c #3067B6",
"%. c #3168B7",
"&. c #3868B3",
"*. c #346AB9",
"=. c #4B5985",
"-. c #4F5C8C",
";. c #575886",
":. c #424F94",
">. c #455296",
",. c #4E559F",
"<. c #4C5B9F",
"1. c #495791",
"2. c #565B94",
"3. c #5A5E94",
"4. c #555B9F",
"5. c #55619F",
"6. c #555AA4",
"7. c #595DA3",
"8. c #555AAB",
"9. c #5B5EAE",
"0. c #5357A5",
"q. c #5A5CB2",
"w. c #5D5FBC",
"e. c #4660A4",
"r. c #4D69AC",
"t. c #5762A1",
"y. c #5C62AD",
"u. c #5963A8",
"i. c #426CB7",
"p. c #5A6DB4",
"a. c #676AA7",
"s. c #696BA2",
"d. c #6668A9",
"f. c #6A6CAC",
"g. c #7678AD",
"h. c #7C7CAF",
"j. c #6265B1",
"k. c #636AB2",
"l. c #6A6EB6",
"z. c #6566BC",
"x. c #676AB9",
"c. c #696BBA",
"v. c #6978BD",
"b. c #7679BF",
"n. c #7577B8",
"m. c #577BC2",
"M. c #6264CA",
"N. c #6565C6",
"B. c #7E7FCD",
"V. c #767AC5",
"C. c #6466D3",
"Z. c #7F80B3",
"A. c #6781C9",
"S. c #6A82C5",
"D. c #7880C6",
"F. c #7D91D3",
"G. c #AFAFAF",
"H. c #B6B6B6",
"J. c #BDBBBB",
"K. c #8586C7",
"L. c #8486CC",
"P. c #8486D2",
"I. c #818ED6",
"U. c #8A92D2",
"Y. c #9F9FD7",
"T. c #9497DA",
"R. c #A2A3D5",
"E. c #969BE1",
"W. c #A1A3E6",
"Q. c #A1A8E0",
"!. c #ABACE5",
"~. c #B5B5EB",
"^. c #BEBFEE",
"/. c #DDDDDB",
"(. c #EEEEEE",
"). c #F8F7F7",
"_. c #FEFEFE",
"`. c #F4F3F3",
"'. c None",
/* pixels */
"'.'.'.'.'.'.'.'.'.'.'.'.'.'.'.'.'.'.'.'.'.'.'.'.'.'.'.'.'.'.'.'.",
"'.'.'.'.'.'.'.'.'.'.'.'.'.'.'.'.'.'.'.'.'.'.'.'.'.'.'.'.'.'.'.'.",
"'.'.'.'.'.'.'.'.'.'.'.*.%.#.%.*.'.'.'.'.'.'.'.'.'.'.'.'.'.'.'.'.",
"'.'.'.'.'.'.'.'.$.i.A.I.E.W.W.T.F.m.#.'.'.'.'.'.'.'.'.'.'.'.'.'.",
"'.'.'.'.'.'.+.+.V.T.D.a.;.m W h.Y.~.Q.&.+.'.'.'.'.'.'.'.'.'.'.'.",
"'.'.'.'.'.X.i.P.K.W 6 e 9 e w 6 4 p R.^.S.X.'.'.'.'.'.'.'.'.'.'.",
"'.'.'.'.'.@.P.s.t i v d 7 '.7 d v w 0 Z.~.S.o.'.'.'.'.'.'.'.'.'.",
"'.'.'.'.o.V.g.i x r '.'.'.G.J.H.'.h w 0 g.!.+.'.'.'.'.'.'.'.'.'.",
"'.'.'.} p.n.m z '.'.'.'.'.(._._.(.G.'.s t T.U.} '.'.'.'.'.'.'.'.",
"'.'.'...b.2.b g '.'.'.'.'.`._._._./.'.J q 3.T.r.'.'.'.'.'.'.'.'.",
"'.'.'.e.V.C v '.'.'.'.'.'.'.'._.).'.'.'.m d L.v.] '.'.'.'.'.'.'.",
"'.'.] u.k.b E '.'.'.'.'.'.'.'.'.'.'.'.'.R t b.V._ '.'.'.'.'.'.'.",
"'.'.) p.a.b '.'.'.'.'.'.'.'.'.'.'.'.'.'.'.f f.K.) '.'.'.'.'.'.'.",
"'.'.) l.d.b '.'.'.'.'.'.'.'.'.'.'.'.'.'.'.v 5.K.) '.'.'.'.'.'.'.",
"'.'.M y.c.C '.'.'.'.'.'.'.'.'.'.'.'.'.'.'.b a.V.l '.'.'.'.'.'.'.",
"'.'.M <.c.>.! '.'.'.'.'.'.'.'.'.'.'.'.'.'.m l.k.M '.'.'.'.'.'.'.",
"'.'.'.{ x.8.=.'.'.'.'.'.'.'.'.'.'.'.'.'.Q Q l.<.j '.'.'.'.'.'.'.",
"'.'.'.M y.C.4.'.'.'.'.'.'.'.'.'.'.'.'.'.n 3.x.` '.'.'.'.'.'.'.'.",
"'.'.'.j >.N.M.t.'.'.'.'.'.'.'.'.'.'.'.Z ;.j.6.y '.'.'.'.'.'.'.'.",
"'.'.'.'.y 6.C.N.t.'.'.'.'.'.'.'.'.'.A ^ u.9.B : '.'.'.'.'.'.'.'.",
"'.'.'.'.u N 9.C.M.u.-.'.'.'.'.'.~ Z -.7.9.` ! ; & '.'.'.'.'.'.'.",
"'.'.'.'.'.u N 0.w.M.y.t.1.=.A ~ =.2.7.6.N c I ( % '.'.'.'.'.'.'.",
"'.'.'.'.'.'.u u :.8.q.q.9.7.4.6.7.8.:.u V T D U / + '.'.'.'.'.'.",
"'.'.'.'.'.'.'.'.u M ' :.,.0.,.>.' N y $ E R G D U I + '.'.'.'.'.",
"'.'.'.'.'.'.'.'.'.'.u u u u y u y '.'.'.o a J S 3 K F @ '.'.'.'.",
"'.'.'.'.'.'.'.'.'.'.'.'.'.'.'.'.'.'.'.'.'.o > H , 2 K 2 % '.'.'.",
"'.'.'.'.'.'.'.'.'.'.'.'.'.'.'.'.'.'.'.'.'.'.o * a - 2 L ; % '.'.",
"'.'.'.'.'.'.'.'.'.'.'.'.'.'.'.'.'.'.'.'.'.'.'.X O - = 1 F + '.'.",
"'.'.'.'.'.'.'.'.'.'.'.'.'.'.'.'.'.'.'.'.'.'.'.'.. o & = < @ . '.",
"'.'.'.'.'.'.'.'.'.'.'.'.'.'.'.'.'.'.'.'.'.'.'.'.'.  o O O o '.'.",
"'.'.'.'.'.'.'.'.'.'.'.'.'.'.'.'.'.'.'.'.'.'.'.'.'.'.'.X '.'.'.'.",
"'.'.'.'.'.'.'.'.'.'.'.'.'.'.'.'.'.'.'.'.'.'.'.'.'.'.'.'.'.'.'.'."
};
