/* XPM */
static char *run_32x32[] = {
/* columns rows colors chars-per-pixel */
"32 32 69 1 ",
"  c #1F2424",
". c #232423",
"X c #2D3335",
"o c #303537",
"O c #313739",
"+ c #353B3C",
"@ c #383E3F",
"# c #393F41",
"$ c #3C4243",
"% c #414545",
"& c #424749",
"* c #454A4B",
"= c #4A4E50",
"- c #4D5152",
"; c #545753",
": c #565854",
"> c #575C5D",
", c #5A5D5A",
"< c #616565",
"1 c #666A6C",
"2 c #6F7372",
"3 c #727573",
"4 c #777875",
"5 c #7D8182",
"6 c #818584",
"7 c #868986",
"8 c #858888",
"9 c #8B8D8C",
"0 c #8F928D",
"q c #91928E",
"w c #8D9090",
"e c #949695",
"r c #969994",
"t c #989896",
"y c #9FA09D",
"u c #A0A19D",
"i c #A3A6A3",
"p c #A6A8A4",
"a c #A8AAA6",
"s c #ACADAA",
"d c #AFB1AC",
"f c #B2B5AE",
"g c #B3B5B2",
"h c #B6B9B2",
"j c #B9BCB6",
"k c #BCBEBB",
"l c #BEC1BB",
"z c #C1C4BE",
"x c #C4C6C2",
"c c #C6C9C4",
"v c #C9CCC5",
"b c #CBCDCB",
"n c #CED1CB",
"m c #D2D6CE",
"M c #D4D5D2",
"N c #D5D9D3",
"B c #DADCD6",
"V c #DCDEDA",
"C c #DEE1DC",
"Z c #E0E2DF",
"A c #E2E3E1",
"S c #E6E8E5",
"D c #E9EAE7",
"F c #EBECEB",
"G c #EEF0ED",
"H c #F5F6F5",
"J c #F8F8F7",
"K c #FBFBFB",
"L c None",
/* pixels */
"LLLLLLLLLLLLLLLLLLLLLLLLLLLLLLLL",
"LLLLL:4tLt4:LLLLLLLLLLLLLLLLLLLL",
"LLLL:bAscdAn:LLLLLLLLLLLLLLLLLLL",
"LLLL4AJKJKJA4LLLLLLLLLLLLLLLLLLL",
"LLLLtsKi,uKsrLLLLLLLLLLLLLLLLLLL",
"LLLLLxH;L;JxLLo##LLLLLLLLLLLLLLL",
"LLLLtsKy,iJseoeMk+LLLO++LLLLLLLL",
"LLLL4AJKJKJA4#GSS#LLL&Fb&oLLLLLL",
"LLLL;nAdcdZb;$bcM5+##kBSg+LLLLLL",
"LLLLL:4t%%::L+aMASFAbcgN*LLLLLLL",
"LLLLLLLL#w##$cHCxljxBSns+LLLLLLL",
"LLLLLLL+gHVtNGhadddghkCm$LLLLLLL",
"LLLLLLL+GZxMHgdddfhhlllCb#+#OLLL",
"LLLLLLL+;bbJjsdglvnnllllZpdbioLL",
"LLLLLLLLL#bAddhcx25lAcxxMbsxb#LL",
"LLLLLLLLL#Abdhxl+LL+cAxcnBgbgOLL",
"LLLLLLLLL+GlhhN7LLLL*JvvnC7$+LLL",
"LLLLLLLo#-SxhjC3LLLL,KnnmC$LLLLL",
"LLLLLL+9cbCcllBv+LL+hHnmNC@LLLLL",
"LLLLLL+lMgnCllvGx<&xJCmmCz+LLLLL",
"LLLLLLX8VxaFcxxmGKKHCmmmCgp&OLLL",
"LLLLLLL+#+ObAccvnnmmmmmCvwsc$LLL",
"LLL;4tL63;L$NAnnnmmmNmCm8glg+LLL",
"LL;kvazavk:o2bSVBmNNCCc*X#8*LLLL",
"LL4vGJFHGv;@fugvZAZBcy+LLLXXLLLL",
"LLriHq,qJu@1bss###>pwy+LLLLLLLLL",
"LLLzF;L:Fz+$ic; LL+paj+LLLLLLLLL",
"LLeiHq,qHi9L+$oLLLX6d9+LLLLLLLLL",
"LL4vGHFHGv4LLLLLLLLX+XLLLLLLLLLL",
"LL:jvpzpvk;LLLLLLLLLLLLLLLLLLLLL",
"LLL;:7.74:LLLLLLLLLLLLLLLLLLLLLL",
"LLLLLLLLLLLLLLLLLLLLLLLLLLLLLLLL"
};
