/* XPM */
static char * max_pressed_xpm[] = {
"16 12 2 1",
"#	c #4A6367",
"$	c #f0f0f0",
"################",
"##$$$$$$$$$$$$##",
"##$##########$##",
"##$##########$##",
"##$$$$$$$$$$$$##",
"##$##########$##",
"##$##########$##",
"##$##########$##",
"##$##########$##",
"##$##########$##",
"##$$$$$$$$$$$$##",
"################"
};
