/* XPM */
static char * max_hovered_xpm[] = {
"16 12 2 1",
"%	c #4A6367",
"$	c #f0f0f0",
"%%%%%%%%%%%%%%%%",
"%%%%%%%%%%%%%%%%",
"%%%$$$$$$$$$$%%%",
"%%%$%%%%%%%%$%%%",
"%%%$$$$$$$$$$%%%",
"%%%$%%%%%%%%$%%%",
"%%%$%%%%%%%%$%%%",
"%%%$%%%%%%%%$%%%",
"%%%$%%%%%%%%$%%%",
"%%%$$$$$$$$$$%%%",
"%%%%%%%%%%%%%%%%",
"%%%%%%%%%%%%%%%%"
};
