/* XPM */
static char * shade_pressed_xpm[] = {
"16 12 2 1",
"$	c #467177",
"#	c #F0F0F0",
"$$$$$$$$$$$$$$$$",
"$$############$$",
"$$#$$$$$$$$$$#$$",
"$$############$$",
"$$$$$$$$$$$$$$$$",
"$$$$$$$##$$$$$$$",
"$$$$$$####$$$$$$",
"$$$$$######$$$$$",
"$$$$########$$$$",
"$$$$$$$$$$$$$$$$",
"$$$$$$$$$$$$$$$$",
"$$$$$$$$$$$$$$$$"
};
