/* XPM */
static char * shade_focused_xpm[] = {
"16 12 2 1",
"$	c #467177",
"#	c #C0C0C0",
"$$$$$$$$$$$$$$$$",
"$$############$$",
"$$#$$$$$$$$$$#$$",
"$$############$$",
"$$$$$$$$$$$$$$$$",
"$$$$$$$$$$$$$$$$",
"$$$$$$$$$$$$$$$$",
"$$$$$$$$$$$$$$$$",
"$$$$$$$$$$$$$$$$",
"$$$$$$$$$$$$$$$$",
"$$$$$$$$$$$$$$$$",
"$$$$$$$$$$$$$$$$"
};
