/* XPM */
static char * unshade_pressed_xpm[] = {
"16 12 2 1",
"$	c #467177",
"#	c #F0F0F0",
"$$$$$$$$$$$$$$$$",
"$$############$$",
"$$#$$$$$$$$$$#$$",
"$$############$$",
"$$#$$$$$$$$$$#$$",
"$$#$########$#$$",
"$$#$$######$$#$$",
"$$#$$$####$$$#$$",
"$$#$$$$##$$$$#$$",
"$$#$$$$$$$$$$#$$",
"$$############$$",
"$$$$$$$$$$$$$$$$"
};
