/* XPM */
static char *file_48x48[] = {
/* columns rows colors chars-per-pixel */
"48 48 53 1 ",
"  c #696A66",
". c #6E706B",
"X c #70716C",
"o c #767974",
"O c #797B76",
"+ c #7C7E79",
"@ c #7E807B",
"# c #82857E",
"$ c #848782",
"% c #878984",
"& c #8A8C87",
"* c #8C8E89",
"= c #8E918B",
"- c #91938E",
"; c #949691",
": c #979994",
"> c #999C96",
", c #9C9E99",
"< c #9EA19B",
"1 c #A2A49D",
"2 c #A5A6A3",
"3 c #A7AAA3",
"4 c #AAADA7",
"5 c #ADAFAA",
"6 c #AEB1AB",
"7 c #B1B5AE",
"8 c #B4B6B1",
"9 c #B6B9B3",
"0 c #B9BCB5",
"q c #BCBDBB",
"w c #BFC1BD",
"e c #C2C2C2",
"r c #C6C9C3",
"t c #CCCDCB",
"y c #CED1CC",
"u c #D1D2CF",
"i c #D3D3D3",
"p c #D7D9D5",
"a c #D9DBD7",
"s c #DADBDA",
"d c #DEE0DC",
"f c #E1E2DF",
"g c #E4E6E2",
"h c #E7E9E5",
"j c #E9EBE7",
"k c #EDEEEB",
"l c #EFF0ED",
"z c #F0F1EF",
"x c #F3F4F2",
"c c #F7F8F6",
"v c #F8F9F7",
"b c #FCFDFC",
"n c None",
/* pixels */
"nnnnnnnnnnnnnnnnnnnnnnnnnnnnnnnnnnnnnnnnnnnnnnnn",
"nnnnnnnnnnnnnnnnnnnnnnnnnnnnnnnnnnnnnnnnnnnnnnnn",
"nnnnnnnqw0q0000000000099909909nnnnnnnnnnnnnnnnnn",
"nnnnnn0jbbbbbbbbbbbbbbbbbbbbxjy9nnnnnnnnnnnnnnnn",
"nnnnnn0bvvvcvxxxxxzxzzzlkkkklxvky7nnnnnnnnnnnnnn",
"nnnnnn0bvvccxxxxxxxxxzzlzkkkkkxvxp7nnnnnnnnnnnnn",
"nnnnnn9bvxxcxxxxxxxzzlzllkkkkkhfvza7nnnnnnnnnnnn",
"nnnnnn9bxxdiiiiiiiiiiiiiiiiiiiiihvks7nnnnnnnnnnn",
"nnnnnn7bxxxxxlxxlxlxkxllkkkkkkjdibxja6nnnnnnnnnn",
"nnnnnn7bxxsiiiiiiiiiiiiiiiiiiiitqxbzhu5nnnnnnnnn",
"nnnnnn7bxxxxlxxllzxkkllllkkkjkjgixbxjhr4nnnnnnnn",
"nnnnnn7bllaiiiiiiiiiiiiiiiiiiiiteettahg0nnnnnnnn",
"nnnnnn6bkxxkxklxllllkzkkkkkkkkjhatw827sa4nnnnnnn",
"nnnnnn6bzkaiiiiiiiiiiiiiiiiiiiiueq822,,s8nnnnnnn",
"nnnnnn5bkzklkzklllklkkkkkkkjkkjjgdpitw42y1nnnnnn",
"nnnnnn4bzksiiiiiiiiiiiiiiiiiiiiiiiiiihhgf2nnnnnn",
"nnnnnn4blklkklklkklkkkkkkkkkkkkjkjjjjjjhx<nnnnnn",
"nnnnnn3blksiiiiiiiiiiiiiiiiiiiiiiiiijjjjb,nnnnnn",
"nnnnnn3blkkklkkklkklklkkkkkkkkkkkjjjkjjjb<nnnnnn",
"nnnnnn2bkksiiiiiiiiiiiiiiiiiiiiiihkkkjjjb,nnnnnn",
"nnnnnn2bkkkkkklkkllklkkllkkkkkkkkkkjkjjhb<nnnnnn",
"nnnnnn1blksiiiiiiiiiiiiiiiiiiiiiiiikjkkkb>nnnnnn",
"nnnnnn<bkkkkklllklllklllzkzkkkkkkkkkkkkkb>nnnnnn",
"nnnnnn,blliiiiiiiiiiiiiiiiiiiiiiiiiikkklb>nnnnnn",
"nnnnnn,blkkklklllllzlzzzzzlzzzlzzzllllllb:nnnnnn",
"nnnnnn,bklsiiiiiiiiiiiiiiiiiigzzzzzxzzzzb;nnnnnn",
"nnnnnn>bkklllllllzzzzzzzxzxzzxzxzxzxxzzzb:nnnnnn",
"nnnnnn>bkllllllzzzxzxxxxxxxxxxxxxxxxxxxzb;nnnnnn",
"nnnnnn:bllzlzzzzxxxxzxxxxcxcccxxxxxcxxxxb-nnnnnn",
"nnnnnn:bzzsiiiiiiiiiiiiiiiiiiiiiiiiiaxxxb;nnnnnn",
"nnnnnn;bzzzzxzxxxxcxccxcccccccvvcccvcxxcb=nnnnnn",
"nnnnnn;bzxsiiiiiiiiiiiiiiiiiiiiiiiiipvvvb*nnnnnn",
"nnnnnn-bxxxxxxxxxvcvvcccvbvbbvbvbvvvvvvvb*nnnnnn",
"nnnnnn=bzxaiiiiiiiiiiiiiiiiiiiiilbbbbvvvb&nnnnnn",
"nnnnnn=bxxzxxxxcxvvvvbvbbvbbbbbbbbbvbvbvb*nnnnnn",
"nnnnnn=blxaiiiiiiiiiiiiiiiiiiiiiiiiivvvvb%nnnnnn",
"nnnnnn*blxxxxcxccccvvbvbbbbbbbbbbbbbvbbvb%nnnnnn",
"nnnnnn*bxxsiiiiiiiiiiiiiiiiiiiiiiiiiipvvb$nnnnnn",
"nnnnnn%blxxxxxxcvcvvvvvbvbbbbbbbbbbbvbvvb$nnnnnn",
"nnnnnn%blxsiiiiiiiiiiiiisvvbbbvbbvvvvvvvb#nnnnnn",
"nnnnnn$blxxxxxxxxccvvvvvvvvbvbvbvbvvvvvvb#nnnnnn",
"nnnnnn$bxlxxzxxxxcxxxvvvvvvvvvvvvvvvvvxvb@nnnnnn",
"nnnnnnoibbbbbbbbbbbbbbbbbbbbbbbbbbbbbbbbaXnnnnnn",
"nnnnnnnX@@#+@+@@@+@+++++++O+O+OOO+ooOOoO nnnnnnn",
"nnnnnnnnnnnnnnnnnnnnnnnnnnnnnnnnnnnnnnnnnnnnnnnn",
"nnnnnnnnnnnnnnnnnnnnnnnnnnnnnnnnnnnnnnnnnnnnnnnn",
"nnnnnnnnnnnnnnnnnnnnnnnnnnnnnnnnnnnnnnnnnnnnnnnn",
"nnnnnnnnnnnnnnnnnnnnnnnnnnnnnnnnnnnnnnnnnnnnnnnn"
};
