/* XPM */
static char *folder_32x32[] = {
/* columns rows colors chars-per-pixel */
"32 32 216 2 ",
"   c #132A4D",
".  c #152F54",
"X  c #224A84",
"o  c #224B85",
"O  c #204A87",
"+  c #224C88",
"@  c #234D88",
"#  c #234C89",
"$  c #234D8A",
"%  c #244E8A",
"&  c #244E8B",
"*  c #254E8B",
"=  c #254F8B",
"-  c #26518C",
";  c #27518D",
":  c #2A548F",
">  c #2A5490",
",  c #2C5792",
"<  c #2E5793",
"1  c #305A94",
"2  c #305C95",
"3  c #325D97",
"4  c #345F98",
"5  c #36619A",
"6  c #38639B",
"7  c #39649D",
"8  c #3C669F",
"9  c #3D68A0",
"0  c #3F6AA2",
"q  c #406CA3",
"w  c #416CA4",
"e  c #436EA6",
"r  c #446FA6",
"t  c #4670A8",
"y  c #4773AA",
"u  c #4974AB",
"i  c #4A75AB",
"p  c #4B76AD",
"a  c #4C77AE",
"s  c #4E7AB0",
"d  c #4F7BB1",
"f  c #527EB3",
"g  c #537FB4",
"h  c #5480B4",
"j  c #5480B5",
"k  c #5581B5",
"l  c #5581B6",
"z  c #5682B6",
"x  c #5782B7",
"c  c #5683B7",
"v  c #5783B7",
"b  c #5784B7",
"n  c #5A84B7",
"m  c #5884B8",
"M  c #5885B8",
"N  c #5986B9",
"B  c #5A87BA",
"V  c #5B87BC",
"C  c #5A88BA",
"Z  c #5B88BB",
"A  c #5C88BB",
"S  c #5C89BB",
"D  c #5D89BB",
"F  c #5C88BC",
"G  c #5D89BC",
"H  c #5D8ABD",
"J  c #5E8ABD",
"K  c #5F8ABD",
"L  c #5E8ABE",
"P  c #5F8BBE",
"I  c #5F8CBF",
"U  c #608CBF",
"Y  c #628DBF",
"T  c #608EC3",
"R  c #6590C2",
"E  c #6D93C2",
"W  c #7098C6",
"Q  c #7FA1C9",
"!  c #75A1D0",
"~  c #75A2D0",
"^  c #76A2D0",
"/  c #77A2D1",
"(  c #77A3D1",
")  c #78A3D1",
"_  c #79A3D1",
"`  c #79A3D2",
"'  c #79A4D1",
"]  c #79A4D2",
"[  c #7AA4D2",
"{  c #7AA5D2",
"}  c #7BA5D2",
"|  c #7BA6D2",
" . c #7CA5D2",
".. c #7CA5D3",
"X. c #7CA6D2",
"o. c #7CA7D2",
"O. c #7DA7D2",
"+. c #7CA6D3",
"@. c #7DA6D3",
"#. c #7DA7D3",
"$. c #7EA7D3",
"%. c #7EA7D4",
"&. c #7FA7D4",
"*. c #7EA8D3",
"=. c #7FA8D3",
"-. c #7FA8D4",
";. c #80A5CF",
":. c #86A7CE",
">. c #80A9D3",
",. c #80A8D4",
"<. c #80A9D4",
"1. c #81A9D4",
"2. c #81AAD4",
"3. c #81AAD5",
"4. c #82AAD4",
"5. c #82AAD5",
"6. c #83AAD5",
"7. c #83ABD5",
"8. c #84ABD5",
"9. c #84ACD5",
"0. c #85ACD5",
"q. c #85ACD6",
"w. c #86ADD6",
"e. c #87ADD6",
"r. c #87AED6",
"t. c #8EAFD2",
"y. c #88AED6",
"u. c #89AFD6",
"i. c #88AED7",
"p. c #89AFD7",
"a. c #8AAFD7",
"s. c #90AED2",
"d. c #8AB0D7",
"f. c #8BB0D7",
"g. c #8BB0D8",
"h. c #8BB1D8",
"j. c #8CB1D8",
"k. c #8DB1D8",
"l. c #8DB2D8",
"z. c #8EB2D9",
"x. c #8FB2D9",
"c. c #8EB3D9",
"v. c #8FB3D9",
"b. c #8FB4D9",
"n. c #90B3D9",
"m. c #90B4D9",
"M. c #91B4DA",
"N. c #91B5DA",
"B. c #92B5DA",
"V. c #93B6DA",
"C. c #93B6DB",
"Z. c #94B6DB",
"A. c #94B7DB",
"S. c #95B7DB",
"D. c #96B7DB",
"F. c #96B7DC",
"G. c #96B8DB",
"H. c #97B8DC",
"J. c #97B9DC",
"K. c #98B9DC",
"L. c #99B9DC",
"P. c #98BADC",
"I. c #99BADC",
"U. c #99BADD",
"Y. c #9ABADD",
"T. c #9ABBDD",
"R. c #9BBBDD",
"E. c #9CBCDD",
"W. c #9CBCDE",
"Q. c #9DBCDE",
"!. c #9DBDDE",
"~. c #9EBDDE",
"^. c #9EBCDF",
"/. c #9FBEDE",
"(. c #A0BCDB",
"). c #A2BEDB",
"_. c #A0BCDC",
"`. c #A2BEDC",
"'. c #A0BEDF",
"]. c #A0BFDF",
"[. c #A1BFDF",
"{. c #A9C1DD",
"}. c #A3C0E0",
"|. c #A4C1E0",
" X c #A5C2E0",
".X c #A5C2E1",
"XX c #A8C4E0",
"oX c #A8C4E1",
"OX c #A9C5E2",
"+X c #ABC5E3",
"@X c #ACC7E3",
"#X c #ADC7E3",
"$X c #ADC8E3",
"%X c #AEC9E3",
"&X c #AFC8E4",
"*X c #AFC9E4",
"=X c #B0C9E5",
"-X c #B1CAE4",
";X c #B1CAE5",
":X c #B2CBE5",
">X c #B8CFE6",
",X c #B9CEE7",
"<X c #B9CFE7",
"1X c #BACFE7",
"2X c #BAD0E7",
"3X c #BBD0E7",
"4X c #B9D0E8",
"5X c #BAD0E8",
"6X c #BBD0E8",
"7X c #BBD1E8",
"8X c #BCD1E8",
"9X c #BCD1E9",
"0X c #BDD2E8",
"qX c #C6D8EB",
"wX c #CADBED",
"eX c None",
/* pixels */
"eXeXeXeXeXeXeXeXeXeXeXeXeXeXeXeXeXeXeXeXeXeXeXeXeXeXeXeXeXeXeXeX",
"eXeXeXeXeXeXeXeXeXeXeXeXeXeXeXeXeXeXeXeXeXeXeXeXeXeXeXeXeXeXeXeX",
"eXeXeXeXeXeXeXeXeXeXeXeXeXeXeXeXeXeXeXeXeXeXeXeXeXeXeXeXeXeXeXeX",
"eXeXeXeXR U I P P P P F Z P eXeXeXeXeXeXeXeXeXeXeXeXeXeXeXeXeXeX",
"eXeXeXD :.qXwXwXwXwXwXwXwX{.n eXeXeXeXeXeXeXeXeXeXeXeXeXeXeXeXeX",
"eXeXk t.&XQ.F.F.F.F.F.F.F.{.(.U D Z Z Z Z m M M b b M k k eXeXeX",
"eXeXi H.&.[ [ [ [ [ [ [ ) ) U ).0X0X0X0X3X3X3X3X<X<X<X>X~.j eXeX",
"eXeXw ;.T T T T T T T T T V k..XQ.Q.Q.Q.Q.T.Q.T.R.U.U.H.{.f eXeX",
"eXeXr D m k m k k l j j j Q {.Q.Q.Q.Q.U.R.U.U.U.U.H.G.G..Xp eXeX",
"eXeXg `.4X<X6X6X6X6X6X6X3X#XT.T.T.U.U.U.U.U.U.H.H.H.D.D.OXu eXeX",
"eXeXg Q.G.U.H.U.H.H.H.U.G.U.H.H.G.H.D.F.D.D.F.F.G.D.N.D.&Xt eXeX",
"eXeXs U.D.D.D.D.H.H.A.H.D.D.D.D.G.G.D.D.N.D.M.M.N.M.c.c.&Xw eXeX",
"eXeXu T.N.N.M.M.N.N.M.N.N.N.M.M.N.N.c.c.c.k.p.k.p.p.p.p.-X9 eXeX",
"eXeXy {.c.c.c.c.b.c.c.c.a.c.c.p.p.f.p.p.p.i.p.p.r.e.r.r.-X9 eXeX",
"eXeXr .Xc.c.h.c.h.h.p.p.a.p.p.p.p.p.p.p.e.e.e.e.e.2.r.2.;X6 eXeX",
"eXeXq OXh.h.p.p.p.r.p.p.p.e.e.e.e.0.6.6.e.2.1.2.2.2.2.-.$X5 eXeX",
"eXeX9 #Xp.r.e.i.e.e.r.r.e.2.7.2.>.>.2.2.-.-.2.-.-.$.$.$.{.2 eXeX",
"eXeX7 &Xe.2.e.2.2.2.2.2.2.2.2.-.$.$.,.,.$.&.$.[ $.[ $.[ U.< eXeX",
"eXeX5 ;X1.2.2.1.-.1.*.>.&.$.&.$.$.$.$.[ &.[ ` ` [ ) ) ) N.> eXeX",
"eXeX3 &X>.$.&.&.&.&.[ $.$.[ [ $.[ [ [ ) ` ` ` ` ( ( ( ^ h.; eXeX",
"eXeX1 OX1.1.&.&.&.-.&.$.$.$.$.) [ [ [ ) $.) ) ) ( ( ( ( 2.$ eXeX",
"eXeX, .X1.e.1.1.-.-.-.*.$.&.$.$.$.*.[ $.) $.$.) [ $.[ [ &.& eXeX",
"eXeX: `.2.2.2.2.e.2.2.>.2.1.$.&.*.>.>.1.1.1.&.1.>.$.&.$.&.= eXeX",
"eXeX; ^.1.1.e.2.1.2.2.2.2.2.2.2.>.2.2.2.2.2.2.2.2.2.2.-.e.= eXeX",
"eXeX@ H.6.-.7.7.q.q.2.2.2.2.2.2.2.2.2.i.2.>.2.>.e.>.2.-.r.= eXeX",
"eXeXO N.Q ! ! ! W ( ! ! ( ( ! ( ( ( ( W ( ^ ( ^ W ( ! ( p.$ eXeX",
"eXeX$ E b.l.h.l.c.f.c.c.h.c.h.c.h.c.l.l.l.l.c.l.c.c.c.h.E $ eXeX",
"eXeX  O O O O O O O O O O O O O O O O O O O O O $ O O O @ . eXeX",
"eXeXeXeXeXeXeXeXeXeXeXeXeXeXeXeXeXeXeXeXeXeXeXeXeXeXeXeXeXeXeXeX",
"eXeXeXeXeXeXeXeXeXeXeXeXeXeXeXeXeXeXeXeXeXeXeXeXeXeXeXeXeXeXeXeX",
"eXeXeXeXeXeXeXeXeXeXeXeXeXeXeXeXeXeXeXeXeXeXeXeXeXeXeXeXeXeXeXeX",
"eXeXeXeXeXeXeXeXeXeXeXeXeXeXeXeXeXeXeXeXeXeXeXeXeXeXeXeXeXeXeXeX"
};
