/* XPM */
static char * lhalf_focused_xpm[] = {
"16 12 4 1",
" 	c None",
".	c #F3F3F3",
"#	c #E3E5EB",
"$	c #AEAEAE",
"$$$$$$$$$$$$$$$$",
"$$#######$$$$$$$",
"$$#$$$$$#$$$$$$$",
"$$#######$$$$$$$",
"$$#$$$$$#$$$$$$$",
"$$#$$$$$#$$$$$$$",
"$$#$$$$$#$$$$$$$",
"$$#$$$$$#$$$$$$$",
"$$#$$$$$#$$$$$$$",
"$$#$$$$$#$$$$$$$",
"$$#######$$$$$$$",
"$$$$$$$$$$$$$$$$"
};
