/* XPM */
static char * rback_focused_xpm[] = {
"16 12 4 1",
" 	c None",
".	c #E3E5EB",
"#	c #C0C0C0",
"$	c #AEAEAE",
"$$$$$$$$$$$$$$$$",
"$$$$$$$$$$$$$$$$",
"$$$$$$$$$$$$$$$$",
"$$########$$$$$$",
"$$#$$$$$$#$$$$$$",
"$$########$$$$$$",
"$$#$$$$$$#$$$$$$",
"$$#$$$$$$#$$$$$$",
"$$#$$$$$$#$$$$$$",
"$$########$$$$$$",
"$$$$$$$$$$$$$$$$",
"$$$$$$$$$$$$$$$$"
};
