/* XPM */
static char *folder_48x48[] = {
/* columns rows colors chars-per-pixel */
"48 48 255 2 ",
"   c #1E4173",
".  c #20457A",
"X  c #204A87",
"o  c #214B87",
"O  c #224B88",
"+  c #234D8A",
"@  c #254F8C",
"#  c #25508C",
"$  c #28528E",
"%  c #2A5590",
"&  c #2D5792",
"*  c #2F5A94",
"=  c #325C97",
"-  c #345F99",
";  c #37619B",
":  c #37629B",
">  c #39649D",
",  c #3C679F",
"<  c #3E69A1",
"1  c #416CA4",
"2  c #426DA4",
"3  c #436EA6",
"4  c #436FA6",
"5  c #4671A8",
"6  c #4873AA",
"7  c #4A76AC",
"8  c #4C78AE",
"9  c #4D79AE",
"0  c #5379AB",
"q  c #547AAC",
"w  c #4F7BB1",
"e  c #507BB0",
"r  c #507CB1",
"t  c #527EB1",
"y  c #517DB3",
"u  c #527EB3",
"i  c #5480B4",
"p  c #5480B5",
"a  c #5581B5",
"s  c #5682B5",
"d  c #5581B6",
"f  c #5682B6",
"g  c #5682B7",
"h  c #5783B7",
"j  c #5883B6",
"k  c #5985B7",
"l  c #5783B8",
"z  c #5884B8",
"x  c #5985B9",
"c  c #5A85B8",
"v  c #5B85BA",
"b  c #5A86BA",
"n  c #5B87BA",
"m  c #5B87BB",
"M  c #5D87BB",
"N  c #5B88BB",
"B  c #5C88BB",
"V  c #5E89BB",
"C  c #5C88BC",
"Z  c #5C89BC",
"A  c #5D89BC",
"S  c #5D89BD",
"D  c #5E88BC",
"F  c #5E89BD",
"G  c #5E8ABD",
"H  c #5E8ABE",
"J  c #5F8BBE",
"K  c #5F8CBF",
"L  c #608CBF",
"P  c #638EBF",
"I  c #638FC0",
"U  c #628FC1",
"Y  c #6290C3",
"T  c #6690C0",
"R  c #6694C7",
"E  c #6E99CA",
"W  c #73A0CF",
"Q  c #74A0CF",
"!  c #74A1CF",
"~  c #79A2CF",
"^  c #74A0D0",
"/  c #74A1D0",
"(  c #75A1D0",
")  c #76A1D0",
"_  c #76A1D1",
"`  c #75A2D0",
"'  c #76A2D0",
"]  c #77A3D0",
"[  c #76A2D1",
"{  c #77A2D1",
"}  c #77A3D1",
"|  c #78A3D1",
" . c #79A3D1",
".. c #78A4D1",
"X. c #79A4D1",
"o. c #7AA5D1",
"O. c #79A4D2",
"+. c #7AA4D2",
"@. c #7AA5D2",
"#. c #7BA5D2",
"$. c #7BA5D3",
"%. c #7BA6D2",
"&. c #7CA5D2",
"*. c #7CA5D3",
"=. c #7CA6D2",
"-. c #7DA6D2",
";. c #7DA7D2",
":. c #7CA6D3",
">. c #7DA6D3",
",. c #7CA7D3",
"<. c #7DA7D3",
"1. c #7EA6D3",
"2. c #7EA7D3",
"3. c #7EA8D3",
"4. c #7FA8D3",
"5. c #7FA8D4",
"6. c #85A9D2",
"7. c #80A8D4",
"8. c #80A9D4",
"9. c #81A9D4",
"0. c #81AAD4",
"q. c #82AAD4",
"w. c #82AAD5",
"e. c #83AAD5",
"r. c #83ABD5",
"t. c #84ABD5",
"y. c #84ACD5",
"u. c #85ACD5",
"i. c #85ACD6",
"p. c #86ADD6",
"a. c #87ADD6",
"s. c #87ADD7",
"d. c #87AED6",
"f. c #8BAAD0",
"g. c #88ABD3",
"h. c #8EACD1",
"j. c #89ACD4",
"k. c #88AED6",
"l. c #88AED7",
"z. c #89AFD7",
"x. c #8AAFD7",
"c. c #8CAED4",
"v. c #8AB0D7",
"b. c #8BB0D7",
"n. c #8BB1D7",
"m. c #8BB0D8",
"M. c #8CB0D8",
"N. c #8CB1D8",
"B. c #8DB1D8",
"V. c #8DB1D9",
"C. c #8DB2D8",
"Z. c #8EB2D8",
"A. c #8EB2D9",
"S. c #8FB2D9",
"D. c #8EB3D9",
"F. c #8FB3D9",
"G. c #97B4D6",
"H. c #90B3D9",
"J. c #90B3DA",
"K. c #90B4D9",
"L. c #90B4DA",
"P. c #91B4DA",
"I. c #91B5DA",
"U. c #92B4DA",
"Y. c #92B5DA",
"T. c #92B6DA",
"R. c #93B6DA",
"E. c #93B6DB",
"W. c #94B6DB",
"Q. c #94B7DB",
"!. c #95B7DB",
"~. c #96B7DB",
"^. c #96B8DB",
"/. c #96B8DC",
"(. c #97B8DC",
"). c #97B9DC",
"_. c #98B9DB",
"`. c #98B9DC",
"'. c #99B9DC",
"]. c #99B9DD",
"[. c #99BADC",
"{. c #99BADD",
"}. c #9ABADD",
"|. c #9BBADD",
" X c #9ABBDD",
".X c #9BBBDD",
"XX c #9CBBDE",
"oX c #9CBCDD",
"OX c #9DBCDD",
"+X c #9CBCDE",
"@X c #9DBCDE",
"#X c #9DBDDE",
"$X c #9EBDDE",
"%X c #9FBEDE",
"&X c #9FBEDF",
"*X c #A0BFDE",
"=X c #A0BEDF",
"-X c #A1BEDF",
";X c #A0BFDF",
":X c #A2C0DF",
">X c #AAC2DF",
",X c #A4C1E0",
"<X c #A5C1E0",
"1X c #A4C1E1",
"2X c #A6C2E0",
"3X c #A6C3E1",
"4X c #A7C3E1",
"5X c #A8C3E1",
"6X c #A8C2E2",
"7X c #A9C5E1",
"8X c #A8C4E2",
"9X c #A9C4E2",
"0X c #AAC5E2",
"qX c #ABC6E2",
"wX c #AEC6E0",
"eX c #ACC6E3",
"rX c #ACC7E3",
"tX c #ADC7E3",
"yX c #AFC7E2",
"uX c #ADC8E3",
"iX c #AEC8E2",
"pX c #AEC8E3",
"aX c #AFC8E4",
"sX c #AFC9E4",
"dX c #B1C7E1",
"fX c #B1C8E2",
"gX c #B3C9E2",
"hX c #B3CAE3",
"jX c #B0C9E4",
"kX c #B0C9E5",
"lX c #B0CAE4",
"zX c #B1CAE5",
"xX c #B2CAE5",
"cX c #B2CBE5",
"vX c #B4CBE5",
"bX c #BACEE5",
"nX c #BBCFE6",
"mX c #BFD2E7",
"MX c #BED2E8",
"NX c #BFD2E9",
"BX c #C0D2E8",
"VX c #C0D4EA",
"CX c #C2D6EA",
"ZX c #C3D6EA",
"AX c #C3D6EB",
"SX c #C4D6EB",
"DX c #C4D7EB",
"FX c #C5D7EB",
"GX c #C5D7EC",
"HX c #C6D8EB",
"JX c #C5D8EC",
"KX c #C6D8EC",
"LX c #C7D8EC",
"PX c #D6E3F2",
"IX c None",
/* pixels */
"IXIXIXIXIXIXIXIXIXIXIXIXIXIXIXIXIXIXIXIXIXIXIXIXIXIXIXIXIXIXIXIXIXIXIXIXIXIXIXIXIXIXIXIXIXIXIXIX",
"IXIXIXIXIXIXIXIXIXIXIXIXIXIXIXIXIXIXIXIXIXIXIXIXIXIXIXIXIXIXIXIXIXIXIXIXIXIXIXIXIXIXIXIXIXIXIXIX",
"IXIXIXIXIXIXIXIXIXIXIXIXIXIXIXIXIXIXIXIXIXIXIXIXIXIXIXIXIXIXIXIXIXIXIXIXIXIXIXIXIXIXIXIXIXIXIXIX",
"IXIXIXIXIXIXIXIXIXIXIXIXIXIXIXIXIXIXIXIXIXIXIXIXIXIXIXIXIXIXIXIXIXIXIXIXIXIXIXIXIXIXIXIXIXIXIXIX",
"IXIXIXIXIXIXIXIXIXIXIXIXIXIXIXIXIXIXIXIXIXIXIXIXIXIXIXIXIXIXIXIXIXIXIXIXIXIXIXIXIXIXIXIXIXIXIXIX",
"IXIXIXIXIXIXIXU U K K F F F F D Z F m D IXIXIXIXIXIXIXIXIXIXIXIXIXIXIXIXIXIXIXIXIXIXIXIXIXIXIXIX",
"IXIXIXIXIXIXU BXPXPXPXPXPXPXPXPXPXPXPXMXD IXIXIXIXIXIXIXIXIXIXIXIXIXIXIXIXIXIXIXIXIXIXIXIXIXIXIX",
"IXIXIXIXIXF nXVXaXzXaXzXzXzXkXkXaXzXaXAXbXi IXIXIXIXIXIXIXIXIXIXIXIXIXIXIXIXIXIXIXIXIXIXIXIXIXIX",
"IXIXIXIXx gXvX-X-X-X-X-X-X-X-X-X-X-X-X-XvXfXi IXIXIXIXIXIXIXIXIXIXIXIXIXIXIXIXIXIXIXIXIXIXIXIXIX",
"IXIXIXy >X6XH.W.H.U.U.U.U.H.U.U.U.H.R.H.R.,XG.F F F B x x x x x x k x i k x k i l i i h IXIXIXIX",
"IXIXIX8 ,Xe.e.e.t.t.t.t.e.e.e.t.t.t.t.e.t.~ P fXSXKXHXHXHXVXKXKXSXSXHXVXVXSXVXVXVXHXmXf.i IXIXIX",
"IXIXIX6 H.^ ^ ^ ^ ^ ^ ^ ^ ^ ^ ^ ^ ^ ^ ! E F fX7X:X&X&X&X&X&X&X&X.X&XoX.X&X{.&X{.{.{.&XpXy IXIXIX",
"IXIXIX4 6.R R R R R R R R R R R R R R R G fX7X&X&X&X&X.X&X&X.X.X&X.X.X.X{.{.{..X{..X^.,X8 IXIXIX",
"IXIXIX2 T x z z l l z j z u z u u i u z >X>X&XoX.X.X.X.X.XoX.X.X{.{..X.X.X^..X{..X^.(.,X7 IXIXIX",
"IXIXIXe h.BXAXGXSXGXSXSXGXSXSXSXGXGXGXGX:X.X.X.X.X.X.X.X{.{..X.X{..X.X.X^..X{.(.(.^.^.7X6 IXIXIX",
"IXIXIXi 7X.X{.{.].{.].{.].{..X].{.{..X{..X.X^..X.X.X.X.X.XW..X^.^.^.W.^.^.W.^.W.^.W.(.7X5 IXIXIX",
"IXIXIXu {.(.(.(..X^.^..X.X.X{.{.].{._.].{.^.{..X^.^.(.(.(.^.^.^.^.W.^.W.^.W.R.W.W.R.R.7X2 IXIXIX",
"IXIXIXw (.Q.^.(.W..XW.W.W.W.W.W.W._.W.W.^.^.W.W.^.W.^.W.W.^.R.R.W.W.W.R.R.R.R.D.R.S.D.aX2 IXIXIX",
"IXIXIX8 oXR.R.R.R.R.R.W.W.W.R.R.W.W.W.W.R.R.R.R.R.W.R.R.R.R.R.H.H.K.K.F.C.S.S.N.N.N.C.aX< IXIXIX",
"IXIXIX7 oXR.R.D.H.R.R.H.R.R.R.R.H.R.R.R.D.R.D.R.S.D.D.H.N.S.N.S.v.C.C.v.v.x.x.x.s.x.x.zX, IXIXIX",
"IXIXIX6 &XD.D.S.S.S.D.D.D.R.S.S.H.S.C.C.C.C.v.C.C.v.v.v.z.N.N.x.v.v.v.s.s.u.s.s.s.s.s.lX> IXIXIX",
"IXIXIX5 ,XD.R.S.S.S.S.S.C.S.v.C.x.S.v.v.x.x.v.v.x.v.v.d.s.s.s.s.u.s.s.u.s.s.s.s.0.s.s.cX: IXIXIX",
"IXIXIX2 4XS.S.N.N.N.v.N.v.v.v.v.x.v.x.v.x.s.s.s.s.s.s.s.s.s.s.y.s.u.u.u.0.u.q.6.0.e.e.pX: IXIXIX",
"IXIXIX2 ,XN.x.v.v.x.x.v.d.v.s.s.s.s.s.s.s.s.s.s.y.s.y.s.0.y.e.y.0.s.0.0.0.0.q.7.q.q.4.rX= IXIXIX",
"IXIXIX< eXx.x.s.s.s.d.s.s.u.s.s.s.t.t.t.t.e.t.t.q.y.e.e.e.e.q.4.q.7.q.7.q.7.7.7.7.,.4.6X= IXIXIX",
"IXIXIX< pXs.s.s.y.s.s.s.s.u.y.y.t.t.t.t.t.e.q.q.4.q.e.e.4.5.5.5.,.7.,.7.,.,.,.,.,.,.,.-X& IXIXIX",
"IXIXIX> pXs.u.0.y.y.6.6.0.0.y.y.e.e.q.q.q.4.q.7.4.4.4.,.,.,.4.4.,.7.,.,.,.,.&.,.,.| %..X$ IXIXIX",
"IXIXIX> pXy.e.e.e.q.e.7.q.4.4.4.5.4.,.q.,.,.7.,.4.%.,.,.,.%.%.%.| &.| %.&.| ~ | &.| | ^.$ IXIXIX",
"IXIXIX= fXe.5.5.q.7.7.7.7.7.7.,.,.,.,.,.%.%.,.,.%.%.%.%.%.| | %.%.| | %.| | ^ ^ ! ! ^ H.# IXIXIX",
"IXIXIX= pX4.4.4.,.7.,.,.,.,.~ ,.%.%.&.,.| %.| | | %.^ %.| | ^ | | | ! ^ ^ | ^ ) ) ) ^ x.+ IXIXIX",
"IXIXIX= 7X,.,.4.~ 7.,.~ ,.~ ,.&.| ,.| ,.~ %.%.| | | %.^ ~ | | ^ | ! ^ ^ ^ ! W W W W W 7.X IXIXIX",
"IXIXIX& ,X,.,.,.7.,.,.,.,.,.| &.,.| &.| %.| | | | | ^ %.^ | ! | ^ ! | ! | ^ ) ) ) ) ) ,.X IXIXIX",
"IXIXIX% -X,.,.~ ,.,.,.&.&.,.~ ,.~ | %.| %.! | | | | ^ ^ | ^ | ^ | ^ | ^ ^ | ^ | ^ | ) ! X IXIXIX",
"IXIXIX$ .X&.&.,.,.&.&.,.| | &.| &.| | | | | | | | | | | | | | | | | | %.| | | | | | | | X IXIXIX",
"IXIXIX# .X&.,.&.&.,.&.~ | ~ | &.~ &.| &.%.| &.| | &.,.| &.| ,.| &.| %.| ~ &.| &.%.| | ,.X IXIXIX",
"IXIXIX+ _.| &.&.,.~ ,.,.,.,.,.,.,.,.,.~ ,.,.,.&.&.,.,.,.,.~ ,.,.,.,.,.,.,.,.,.,.,.&.| e.X IXIXIX",
"IXIXIXX W.%.,.7.7.,.,.,.7.,.,.,.,.,.,.7.,.,.,.4.7.,.,.7.,.,.,.7.,.,.4.,.,.,.,.,.,.,.| e.X IXIXIX",
"IXIXIXX R.| ,.,.~ ,.,.,.,.&.~ ,.,.,.,.,.,.,.,.,.,.&.,.,.,.&.,.,.,.&.%.4.,.,.,.,.,.,.| x.X IXIXIX",
"IXIXIX+ c.^ ! ! ~ ! ! | ^ ! ~ ~ ! | ! ! ! ~ ! ] ) ! ~ ! ~ ! ^ ! ~ ^ ^ ^ ! ! ~ ! ! ) ^ g.O IXIXIX",
"IXIXIX. q x.S.C.C.S.C.C.S.C.C.S.C.C.H.C.C.C.C.S.C.C.C.C.c.S.S.C.c.S.H.S.C.C.S.C.C.S.g.0 . IXIXIX",
"IXIXIXIX  o X X X X X X X X X X X X X X X X X X X X X X X X X X X X X X X X X X X X X   IXIXIXIX",
"IXIXIXIXIXIXIXIXIXIXIXIXIXIXIXIXIXIXIXIXIXIXIXIXIXIXIXIXIXIXIXIXIXIXIXIXIXIXIXIXIXIXIXIXIXIXIXIX",
"IXIXIXIXIXIXIXIXIXIXIXIXIXIXIXIXIXIXIXIXIXIXIXIXIXIXIXIXIXIXIXIXIXIXIXIXIXIXIXIXIXIXIXIXIXIXIXIX",
"IXIXIXIXIXIXIXIXIXIXIXIXIXIXIXIXIXIXIXIXIXIXIXIXIXIXIXIXIXIXIXIXIXIXIXIXIXIXIXIXIXIXIXIXIXIXIXIX",
"IXIXIXIXIXIXIXIXIXIXIXIXIXIXIXIXIXIXIXIXIXIXIXIXIXIXIXIXIXIXIXIXIXIXIXIXIXIXIXIXIXIXIXIXIXIXIXIX",
"IXIXIXIXIXIXIXIXIXIXIXIXIXIXIXIXIXIXIXIXIXIXIXIXIXIXIXIXIXIXIXIXIXIXIXIXIXIXIXIXIXIXIXIXIXIXIXIX",
"IXIXIXIXIXIXIXIXIXIXIXIXIXIXIXIXIXIXIXIXIXIXIXIXIXIXIXIXIXIXIXIXIXIXIXIXIXIXIXIXIXIXIXIXIXIXIXIX",
"IXIXIXIXIXIXIXIXIXIXIXIXIXIXIXIXIXIXIXIXIXIXIXIXIXIXIXIXIXIXIXIXIXIXIXIXIXIXIXIXIXIXIXIXIXIXIXIX"
};
