/* XPM */
static char *file_32x32[] = {
/* columns rows colors chars-per-pixel */
"32 32 211 2 ",
"   c #434542",
".  c #6C6F6A",
"X  c #6D6F6A",
"o  c #6D706B",
"O  c #6E706B",
"+  c #6E716C",
"@  c #6F716C",
"#  c #6F716D",
"$  c #70726D",
"%  c #70726E",
"&  c #71736E",
"*  c #71746F",
"=  c #72746F",
"-  c #727570",
";  c #737570",
":  c #737671",
">  c #747671",
",  c #747672",
"<  c #757772",
"1  c #767773",
"2  c #757873",
"3  c #797A77",
"4  c #7A7D79",
"5  c #7C7D78",
"6  c #7C7E79",
"7  c #7D7F7A",
"8  c #7F817C",
"9  c #80827C",
"0  c #81837E",
"q  c #828580",
"w  c #838680",
"e  c #858782",
"r  c #858783",
"t  c #878A84",
"y  c #8A8B87",
"u  c #8A8C87",
"i  c #8B8D89",
"p  c #8C8E89",
"a  c #8D908A",
"s  c #8E918B",
"d  c #90928D",
"f  c #91938E",
"g  c #92958F",
"h  c #939690",
"j  c #959691",
"k  c #959892",
"l  c #969893",
"z  c #979A95",
"x  c #989B95",
"c  c #999B96",
"v  c #9A9D97",
"b  c #9DA099",
"n  c #9EA09A",
"m  c #A0A39C",
"M  c #A1A39C",
"N  c #A2A49E",
"B  c #A4A7A0",
"V  c #A5A7A2",
"C  c #A5A9A3",
"Z  c #A6A9A3",
"A  c #A9AAA5",
"S  c #A9ACA5",
"D  c #A9ADA6",
"F  c #ABAEA7",
"G  c #ABAFA8",
"H  c #ADAFAB",
"J  c #ADB0AA",
"K  c #AEB1AA",
"L  c #B0B3AC",
"P  c #B0B3AE",
"I  c #B0B4AD",
"U  c #B1B4AD",
"Y  c #B2B5AE",
"T  c #B2B5AF",
"R  c #B2B6AF",
"E  c #B3B6AF",
"W  c #B3B6B0",
"Q  c #B4B7B0",
"!  c #B5B8B1",
"~  c #B6B9B1",
"^  c #B7BAB3",
"/  c #B9BBB7",
"(  c #BABCB8",
")  c #BDBEBC",
"_  c #BDBFBC",
"`  c #C0C0C0",
"'  c #C2C4C0",
"]  c gray78",
"[  c #C6C9C4",
"{  c #C8CBC7",
"}  c #CBCBCB",
"|  c #CDCFCB",
" . c #CED0CB",
".. c #CFD1CE",
"X. c #D0D3CE",
"o. c gray82",
"O. c #D3D3D3",
"+. c #D2D5D0",
"@. c #D4D6D1",
"#. c gray83",
"$. c #D6D7D6",
"%. c #D7D8D7",
"&. c #D8DBD5",
"*. c #D8D8D7",
"=. c #D9DBD6",
"-. c #D8D8D8",
";. c #D9D9D8",
":. c gray85",
">. c #DADAD9",
",. c #DADDD8",
"<. c #DBDDD8",
"1. c #DCDFD9",
"2. c #DDDDDD",
"3. c #DEDEDD",
"4. c #E0E2DE",
"5. c #E0E3DE",
"6. c #E1E4DE",
"7. c #E2E4E0",
"8. c #E3E5E0",
"9. c #E3E6E1",
"0. c #E4E7E2",
"q. c #E5E7E3",
"w. c #E5E8E3",
"e. c #E6E8E3",
"r. c #E5E8E4",
"t. c #E6E8E4",
"y. c #E6E9E4",
"u. c #E7E9E4",
"i. c #E7E9E5",
"p. c #E7EAE6",
"a. c #E8EAE5",
"s. c #E8EAE6",
"d. c #E8EBE6",
"f. c #E9EBE6",
"g. c #E8EAE7",
"h. c #E8EBE7",
"j. c #E9EBE7",
"k. c #EAECE7",
"l. c #E9EBE8",
"z. c #EAEBE8",
"x. c #E9ECE8",
"c. c #EAECE8",
"v. c #EAEDE8",
"b. c #EBEDE8",
"n. c #EAECE9",
"m. c #EBECE9",
"M. c #EAEDE9",
"N. c #EBEDE9",
"B. c #EBEDEA",
"V. c #EBEEEA",
"C. c #ECEDE9",
"Z. c #ECEDEA",
"A. c #ECEEEA",
"S. c #ECEEEB",
"D. c #EDEEEB",
"F. c #EDEFEB",
"G. c #EDEFEC",
"H. c #EEEFEC",
"J. c #EEF0EC",
"K. c #EEF0ED",
"L. c #EFF0ED",
"P. c #EFF0EE",
"I. c #EFF1EE",
"U. c #F0F1EE",
"Y. c #F0F0EF",
"T. c #F0F1EF",
"R. c #F0F2EF",
"E. c #F1F2EF",
"W. c #F0F1F0",
"Q. c #F1F1F0",
"!. c #F1F2F0",
"~. c #F1F3F0",
"^. c #F2F3F1",
"/. c #F2F4F1",
"(. c #F3F4F1",
"). c #F3F4F2",
"_. c #F3F5F2",
"`. c #F4F5F2",
"'. c #F4F5F3",
"]. c #F5F5F4",
"[. c #F5F6F4",
"{. c #F6F6F5",
"}. c #F6F7F5",
"|. c #F6F7F6",
" X c #F7F7F6",
".X c gray97",
"XX c #F7F8F6",
"oX c #F7F8F7",
"OX c #F8F8F7",
"+X c #F8F9F7",
"@X c #F8F9F8",
"#X c #F9F9F8",
"$X c #F9FAF8",
"%X c #F9FAF9",
"&X c #FAFAF9",
"*X c #FAFBFA",
"=X c #FBFBFA",
"-X c #FBFBFB",
";X c #FBFCFB",
":X c #FCFCFB",
">X c gray99",
",X c #FCFDFC",
"<X c #FDFDFC",
"1X c #FDFDFD",
"2X c #FDFEFD",
"3X c #FEFEFD",
"4X c #FEFEFE",
"5X c #FEFFFE",
"6X c #FFFFFE",
"7X c white",
"8X c None",
/* pixels */
"8X8X8X8X8X8X8X8X8X8X8X8X8X8X8X8X8X8X8X8X8X8X8X8X8X8X8X8X8X8X8X8X",
"8X8X8X8X8X8X8X8X8X8X8X8X8X8X8X8X8X8X8X8X8X8X8X8X8X8X8X8X8X8X8X8X",
"8X8X8X8X8X! ! ! Q Q Q U U U U U U L U U U 8X8X8X8X8X8X8X8X8X8X8X",
"8X8X8X8X! oX7X7X7X7X7X7X7X7X7X7X7X7X[.5.[ K 8X8X8X8X8X8X8X8X8X8X",
"8X8X8X8XE 7X[.`.^.^.^.Y.G.S.N.k.p.e.N.K.k.%.K G 8X8X8X8X8X8X8X8X",
"8X8X8X8XU 7X`.^.^.G.G.G.S.N.k.N.p.p.8.8.`.N.1.U A 8X8X8X8X8X8X8X",
"8X8X8X8XG 7X^.^.;.$.O.O.o.$.o.#.o.O.O.o.O.;Xp.1.K C 8X8X8X8X8X8X",
"8X8X8X8XF 7XR.K.K.G.G.S.N.z.z.z.k.q.e.8.@.,XoX6.=.B 8X8X8X8X8X8X",
"8X8X8X8XA 7XK.K.;.O.O.O.O.O.O.O.O.o.O.O.] 7X7XN.8...n 8X8X8X8X8X",
"8X8X8X8XC 7XJ.S.S.S.S.S.z.k.z.g.k.k.q.q.=.| ' ( [ p.J 8X8X8X8X8X",
"8X8X8X8XB 7XG.S.*.o.O.O.o.$.O.O.o.O.O.O.} _ _ / J ..O.n 8X8X8X8X",
"8X8X8X8Xm 7XS.N.S.S.b.k.z.k.k.k.p.k.u.q.q.q.5.;.| _ [.x 8X8X8X8X",
"8X8X8X8Xm 7XN.N.*.o.o.O.O.O.O.O.o.o.O.O.o.O.O.*.p.r.7Xx 8X8X8X8X",
"8X8X8X8Xv 7XN.N.S.N.S.k.N.z.z.z.z.k.z.z.k.k.k.k.k.k.7Xz 8X8X8X8X",
"8X8X8X8Xv :XN.k.$.o.O.O.O.O.O.O.O.$.N.N.S.S.b.S.z.N.7Xk 8X8X8X8X",
"8X8X8X8Xv 7XN.N.k.S.S.S.S.S.S.S.G.G.G.G.G.S.S.S.S.S.7Xk 8X8X8X8X",
"8X8X8X8Xj 7XS.S.S.S.S.S.Y.G.K.G.G.K.R.K.G.R.Y.G.Y.G.7Xg 8X8X8X8X",
"8X8X8X8Xg 7XS.G.H.S.R.R.R.R.R.R.^.^.^.^.R.^.^.R.R.R.7Xf 8X8X8X8X",
"8X8X8X8Xf 7XG.G.=.O.O.O.O.O.o.$.O.O.o.O.o.$.R.).^.^.7Xp 8X8X8X8X",
"8X8X8X8Xa 7X^.K.R.^.^.^.(.(.[.[.[.[.[.[.[.[.[.).`.`.7Xi 8X8X8X8X",
"8X8X8X8Xi 7XK.^.*.O.O.O.O.O.O.o.O.O.O.O.O.O.o.^.oX`.7Xy 8X8X8X8X",
"8X8X8X8Xy 7X^.^.(.].(.[.oX[.oXOX#X#X#X#X#X#X#XOXoXoX7Xt 8X8X8X8X",
"8X8X8X8Xt 7X].(.;.O.O.O.$.o.o.#.o.o.O.O.O.$.o.3.OX#X7Xe 8X8X8X8X",
"8X8X8X8Xe 7X).(.`.`..X.X#X#X#X;X-X7X7X#X7X#X7X#X;X#X7Xq 8X8X8X8X",
"8X8X8X8Xq 7X).`.;.O.O.O.O.O.#.o.#.o.o.3.7X;X7X#X;X#X7X8 8X8X8X8X",
"8X8X8X8X0 7X`.).[.[.[.oX#X#X#X;X;X;X7X7X,X7X;X7X;X#X7X7 8X8X8X8X",
"8X8X8X8X8 7X).).`.[.[..XoX#X#X#X;X#X;X;X;X;X;X#X#X#X7X4 8X8X8X8X",
"8X8X8X8X5 7XE.).`.[.[.[.[.oX#X@X#X#X;X#X#X#X#X#X@XoX7X3 8X8X8X8X",
"8X8X8X8X5 ^.7X7X7X7X7X7X7X7X7X7X7X7X7X7X7X7X7X7X7X7XoX* 8X8X8X8X",
"8X8X8X8X8X, 2 , , , , ; ; ; * * * & & & @ @ @ o o . .   8X8X8X8X",
"8X8X8X8X8X8X8X8X8X8X8X8X8X8X8X8X8X8X8X8X8X8X8X8X8X8X8X8X8X8X8X8X",
"8X8X8X8X8X8X8X8X8X8X8X8X8X8X8X8X8X8X8X8X8X8X8X8X8X8X8X8X8X8X8X8X"
};
