/* XPM */
static char *find_48x48[] = {
/* columns rows colors chars-per-pixel */
"48 48 195 2 ",
"   c #030202",
".  c #0C0A09",
"X  c #100E0D",
"o  c #13110E",
"O  c #191613",
"+  c #1E1B17",
"@  c #1B1917",
"#  c #211D19",
"$  c #26221D",
"%  c #0F112D",
"&  c #161837",
"*  c #0C0E2B",
"=  c #2B2B2A",
"-  c #2B2823",
";  c #322E28",
":  c #3B352E",
">  c #36312B",
",  c #37393A",
"<  c #373634",
"1  c #22273C",
"2  c #443E35",
"3  c #413F3A",
"4  c #4B443A",
"5  c #51493E",
"6  c #193051",
"7  c #222442",
"8  c #2A2C4E",
"9  c #272C45",
"0  c #2B324A",
"q  c #3A3E42",
"w  c #2F3D59",
"e  c #333B55",
"r  c #353C5B",
"t  c #343757",
"y  c #173661",
"u  c #1A3966",
"i  c #1A3C6C",
"p  c #183863",
"a  c #193E70",
"s  c #3C3D65",
"d  c #203F72",
"f  c #233D69",
"g  c #3B424B",
"h  c #3B4553",
"j  c #3B455B",
"k  c #1C4074",
"l  c #1D447B",
"z  c #354664",
"x  c #3C4C64",
"c  c #3F4169",
"v  c #364969",
"b  c #394C6C",
"n  c #3D4565",
"m  c #3C516D",
"M  c #254177",
"N  c #22437C",
"B  c #3D5375",
"V  c #3D567B",
"C  c #394F73",
"Z  c #484849",
"A  c #544C41",
"S  c #5A5146",
"D  c #5C5448",
"F  c #424C55",
"G  c #48525A",
"H  c #645A4D",
"J  c #61574B",
"K  c #695E51",
"L  c #665D50",
"P  c #6C6254",
"I  c #716657",
"U  c #766A5C",
"Y  c #75695C",
"T  c #42456B",
"R  c #465363",
"E  c #4C5C6C",
"W  c #485667",
"Q  c #535D6A",
"!  c #424D74",
"~  c #474B75",
"^  c #435575",
"/  c #47597B",
"(  c #4D6079",
")  c #7B6E60",
"_  c #7D7263",
"`  c #6F737D",
"'  c #85796A",
"]  c #8D8172",
"[  c #938777",
"{  c #1E4881",
"}  c #224A84",
"|  c #224D8B",
" . c #2F4884",
".. c #3C4D8D",
"X. c #334A87",
"o. c #22508F",
"O. c #3F5A84",
"+. c #3A4F91",
"@. c #265495",
"#. c #295A9D",
"$. c #26579B",
"%. c #395697",
"&. c #275BA3",
"*. c #295DA5",
"=. c #2B5FA8",
"-. c #2D63AC",
";. c #2C60A7",
":. c #3260A5",
">. c #3164AD",
",. c #2F66B1",
"<. c #3869B3",
"1. c #4C5182",
"2. c #425D86",
"3. c #4E5B83",
"4. c #465B89",
"5. c #575B8A",
"6. c #454F93",
"7. c #475399",
"8. c #465798",
"9. c #5A5D9C",
"0. c #565C95",
"q. c #4D648C",
"w. c #53608E",
"e. c #5C618C",
"r. c #4C6195",
"t. c #5D6193",
"y. c #5A659A",
"u. c #64669A",
"i. c #5559A3",
"p. c #5A5CA3",
"a. c #5A5EAA",
"s. c #5357A5",
"d. c #5C5FB5",
"f. c #4962A7",
"g. c #5E62A5",
"h. c #5C6BA3",
"j. c #5D63AD",
"k. c #5866AA",
"l. c #5C6BB5",
"z. c #5E60B9",
"x. c #4A72BC",
"c. c #5B76BC",
"v. c #466EBA",
"b. c #6265AD",
"n. c #656AAB",
"m. c #6769A2",
"M. c #7778AD",
"N. c #6469B4",
"B. c #6B6EB3",
"V. c #6466BC",
"C. c #6669BB",
"Z. c #686AB8",
"A. c #6E71B4",
"S. c #7173B4",
"D. c #7B7CB4",
"F. c #7577BB",
"G. c #797BB9",
"H. c #6370A6",
"J. c #5978C3",
"K. c #6365C5",
"L. c #6668C8",
"P. c #7B7DC2",
"I. c #777AC6",
"U. c #6668DA",
"Y. c #6868E4",
"T. c #7F80B9",
"R. c #5F81C4",
"E. c #6D89CC",
"W. c #7C81C6",
"Q. c #7A89D4",
"!. c #989797",
"~. c #A2A0A0",
"^. c #BCBCBC",
"/. c #8284CD",
"(. c #8788C7",
"). c #898DD6",
"_. c #9394D3",
"`. c #9C9CDE",
"'. c #9497DA",
"]. c #8594D4",
"[. c #98A1DD",
"{. c #A1A2DD",
"}. c #8F98E0",
"|. c #9FA3E6",
" X c #ADAEE4",
".X c #A4A7E4",
"XX c #B6B7EA",
"oX c #D0D0CE",
"OX c #DBDADA",
"+X c #C6C6C4",
"@X c #E4E4E3",
"#X c #E9E9E9",
"$X c #F4F4F4",
"%X c #FDFDFD",
"&X c None",
/* pixels */
"&X&X&X&X&X&X&X&X&X&X&X&X&X&X&X&X&X&X&X&X&X&X&X&X&X&X&X&X&X&X&X&X&X&X&X&X&X&X&X&X&X&X&X&X&X&X&X&X",
"&X&X&X&X&X&X&X&X&X&X&X&X&X&X&X&X&X&X&X&X&X&X&X&X&X&X&X&X&X&X&X&X&X&X&X&X&X&X&X&X&X&X&X&X&X&X&X&X",
"&X&X&X&X&X&X&X&X&X&X&X&X&X&X,.;.&.&.=.&.&.;.-.-.&X&X&X&X&X&X&X&X&X&X&X&X&X&X&X&X&X&X&X&X&X&X&X&X",
"&X&X&X&X&X&X&X&X&X&X&X>.*.>.J.Q.}.|..X.X|.}.E.v.*.-.&X&X&X&X&X&X&X&X&X&X&X&X&X&X&X&X&X&X&X&X&X&X",
"&X&X&X&X&X&X&X&X&X>.*.v.).`.[.[.(.D.D.D.(.{..X XXXE.&.;.&X&X&X&X&X&X&X&X&X&X&X&X&X&X&X&X&X&X&X&X",
"&X&X&X&X&X&X&X&X=.<.Q.'._.u.c & % * % % & 9 T u._. XXXE.*.&X&X&X&X&X&X&X&X&X&X&X&X&X&X&X&X&X&X&X",
"&X&X&X&X&X&X&X*.x._._.t.8 7 7 7 8 0 e j 0 1 9 8 t u.'.XX[.;.-.&X&X&X&X&X&X&X&X&X&X&X&X&X&X&X&X&X",
"&X&X&X&X&X&X=.J.).D.c 8 r b q.^ x h g h j x z w 9 t b T. X X>.,.&X&X&X&X&X&X&X&X&X&X&X&X&X&X&X&X",
"&X&X&X&X&X*.J./.M.t t ^ 2.x &X&X&X&X&X&X&X&X&Xg B e e T D.{.{.;.&X&X&X&X&X&X&X&X&X&X&X&X&X&X&X&X",
"&X&X&X&X-.v./.M.s T 2./ q &X&X&X&X&X&X!.!.&X&X&X&Xm z e T S.{.].&.&X&X&X&X&X&X&X&X&X&X&X&X&X&X&X",
"&X&X&X>.-.W.G.c T O.x &X&X&X&X&X&X&XoX@X@XOX+X~.&X&Xh z r ~ (.{.c.*.&X&X&X&X&X&X&X&X&X&X&X&X&X&X",
"&X&X&X#.C./.1.T / x &X&X&X&X&X&X&XOX$X%X%X%X%X@X^.&X&Xh z F 0.(.{.&.&X&X&X&X&X&X&X&X&X&X&X&X&X&X",
"&X&X=.:.P.m.T / V &X&X&X&X&X&X&X&X&X$X%X%X%X%X%X@X&X&X&XT j T F._.c.#.&X&X&X&X&X&X&X&X&X&X&X&X&X",
"&X&X$.l./.1.~ O.&X&X&X&X&X&X&X&X&X&X&X%X%X%X%X%X#X&X&X&X&Xb j t.W.'.$.&X&X&X&X&X&X&X&X&X&X&X&X&X",
"&X&X@.I.S.~ b R &X&X&X&X&X&X&X&X&X&X&X&X&X%X%X$X&X&X&X&X&XG w ~ G.'.:.#.&X&X&X&X&X&X&X&X&X&X&X&X",
"&X#.#.G.u.~ B &X&X&X&X&X&X&X&X&X&X&X&X&X&X&X&X&X&X&X&X&X&X&Xb n A.(.l.$.&X&X&X&X&X&X&X&X&X&X&X&X",
"&X@.:.F.9.! / &X&X&X&X&X&X&X&X&X&X&X&X&X&X&X&X&X&X&X&X&X&X&Xx j m.P.I.o.&X&X&X&X&X&X&X&X&X&X&X&X",
"&X@.f.F.0.! / &X&X&X&X&X&X&X&X&X&X&X&X&X&X&X&X&X&X&X&X&X&X&XR z y.F./.| &X&X&X&X&X&X&X&X&X&X&X&X",
"&Xo.k.F.9.! / &X&X&X&X&X&X&X&X&X&X&X&X&X&X&X&X&X&X&X&X&X&X&X&Xz t.S./.| &X&X&X&X&X&X&X&X&X&X&X&X",
"&X| k.A.9.! E &X&X&X&X&X&X&X&X&X&X&X&X&X&X&X&X&X&X&X&X&X&X&X&Xv 5.F.I.| &X&X&X&X&X&X&X&X&X&X&X&X",
"&X| k.B.d.~ 3.&X&X&X&X&X&X&X&X&X&X&X&X&X&X&X&X&X&X&X&X&X&X&X&Xv t.B.I.{ &X&X&X&X&X&X&X&X&X&X&X&X",
"&X} 8.B.V.1.q.&X&X&X&X&X&X&X&X&X&X&X&X&X&X&X&X&X&X&X&X&X&X&XQ b m.B.I.{ &X&X&X&X&X&X&X&X&X&X&X&X",
"&X{ %.B.L.3.w.&X&X&X&X&X&X&X&X&X&X&X&X&X&X&X&X&X&X&X&X&X&X&X^ ^ m.A.l.{ &X&X&X&X&X&X&X&X&X&X&X&X",
"&X{ } N.L.i.0.&X&X&X&X&X&X&X&X&X&X&X&X&X&X&X&X&X&X&X&X&X&X&X^ / b.Z.8.} &X&X&X&X&X&X&X&X&X&X&X&X",
"&X&Xl j.C.K.0.t.&X&X&X&X&X&X&X&X&X&X&X&X&X&X&X&X&X&X&X&X&X&XB 0.n.Z.} l &X&X&X&X&X&X&X&X&X&X&X&X",
"&X&XN %.b.U.p.k.&X&X&X&X&X&X&X&X&X&X&X&X&X&X&X&X&X&X&X&X&X^ 3.m.b.l.N &X&X&X&X&X&X&X&X&X&X&X&X&X",
"&X&Xl N b.K.L.b.j.&X&X&X&X&X&X&X&X&X&X&X&X&X&X&X&X&X&X&X/ 2.0.m.N.+.l &X&X&X&X&X&X&X&X&X&X&X&X&X",
"&X&X&Xk +.z.U.V.C.h.&X&X&X&X&X&X&X&X&X&X&X&X&X&X&X&X&X&XV 5.m.b.j.k &X&X&X&X&X&X&X&X&X&X&X&X&X&X",
"&X&X&X&Xk g.V.Y.V.C.n.&X&X&X&X&X&X&X&X&X&X&X&X&X&X&X&X2.5.u.a.N.f u &X&X&X&X&X&X&X&X&X&X&X&X&X&X",
"&X&X&X&Xk N a.K.Y.V.C.l.&X&X&X&X&X&X&X&X&X&X&X&X&Xq.O.w.y.p.a.+.i = 2 &X&X&X&X&X&X&X&X&X&X&X&X&X",
"&X&X&X&X&Xa X.a.K.U.C.Z.l.H.&X&X&X&X&X&X&X&X&X&Xq.2.t.9.p.a.7.a ` [ - : &X&X&X&X&X&X&X&X&X&X&X&X",
"&X&X&X&X&X&Xi  .p.z.U.K.N.l.k.h.H.&X&X&Xy.q.2.2.w.t.p.p.a.7.i x U [ [ $ &X&X&X&X&X&X&X&X&X&X&X&X",
"&X&X&X&X&X&X&Xi M i.i.z.L.V.z.g.g.y.r.r.q.q.0.t.9.p.i.i.X.i m S H Y [ ] $ &X&X&X&X&X&X&X&X&X&X&X",
"&X&X&X&X&X&X&X&Xi i ..a.a.a.d.d.a.a.p.p.9.9.p.p.p.s.6.d i m E Q A H I ] ' $ &X&X&X&X&X&X&X&X&X&X",
"&X&X&X&X&X&X&X&X&Xk u i ..s.i.i.s.i.9.i.i.i.s.s.6.M y 7 R ( E E G A D I ] _ $ &X&X&X&X&X&X&X&X&X",
"&X&X&X&X&X&X&X&X&X&X&Xa u y d  .+.6.7.7...X.d u u i &XO @ g E W E Z 5 D P ' ) $ &X&X&X&X&X&X&X&X",
"&X&X&X&X&X&X&X&X&X&X&X&X&X&Xi u u p y y u i i &X&X&X&X&X&XO = W G G Z 5 D P _ ) # &X&X&X&X&X&X&X",
"&X&X&X&X&X&X&X&X&X&X&X&X&X&X&X&X&X&X&X&X&X&X&X&X&X&X&X&X&X&XO + h G h 4 4 S P _ I $ &X&X&X&X&X&X",
"&X&X&X&X&X&X&X&X&X&X&X&X&X&X&X&X&X&X&X&X&X&X&X&X&X&X&X&X&X&X&XO @ , h g : 4 S P ) P + &X&X&X&X&X",
"&X&X&X&X&X&X&X&X&X&X&X&X&X&X&X&X&X&X&X&X&X&X&X&X&X&X&X&X&X&X&X&X&XO - g 3 < 4 5 L U L # &X&X&X&X",
"&X&X&X&X&X&X&X&X&X&X&X&X&X&X&X&X&X&X&X&X&X&X&X&X&X&X&X&X&X&X&X&X&X&XO + , , > 4 A H U S + &X&X&X",
"&X&X&X&X&X&X&X&X&X&X&X&X&X&X&X&X&X&X&X&X&X&X&X&X&X&X&X&X&X&X&X&X&X&X&Xo @ = > > 4 A H I + &X&X&X",
"&X&X&X&X&X&X&X&X&X&X&X&X&X&X&X&X&X&X&X&X&X&X&X&X&X&X&X&X&X&X&X&X&X&X&X&X. O $ = ; : 5 A @ &X&X&X",
"&X&X&X&X&X&X&X&X&X&X&X&X&X&X&X&X&X&X&X&X&X&X&X&X&X&X&X&X&X&X&X&X&X&X&X&X    O + - ; : + X &X&X&X",
"&X&X&X&X&X&X&X&X&X&X&X&X&X&X&X&X&X&X&X&X&X&X&X&X&X&X&X&X&X&X&X&X&X&X&X&X&X&X  o O O O o &X&X&X&X",
"&X&X&X&X&X&X&X&X&X&X&X&X&X&X&X&X&X&X&X&X&X&X&X&X&X&X&X&X&X&X&X&X&X&X&X&X&X&X&X&X&X&X&X&X&X&X&X&X",
"&X&X&X&X&X&X&X&X&X&X&X&X&X&X&X&X&X&X&X&X&X&X&X&X&X&X&X&X&X&X&X&X&X&X&X&X&X&X&X&X&X&X&X&X&X&X&X&X",
"&X&X&X&X&X&X&X&X&X&X&X&X&X&X&X&X&X&X&X&X&X&X&X&X&X&X&X&X&X&X&X&X&X&X&X&X&X&X&X&X&X&X&X&X&X&X&X&X"
};
