/* XPM */
static char *find_16x16[] = {
/* columns rows colors chars-per-pixel */
"16 16 124 2 ",
"   c #191613",
".  c #1A1714",
"X  c #1C1815",
"o  c #201C19",
"O  c #24201C",
"+  c #2B2823",
"@  c #323333",
"#  c #443E37",
"$  c #131A41",
"%  c #171F4A",
"&  c #19224F",
"*  c #333540",
"=  c #31364A",
"-  c #33374E",
";  c #21295E",
":  c #233056",
">  c #2A3655",
",  c #27335C",
"<  c #373B51",
"1  c #373D55",
"2  c #1B3B69",
"3  c #1D3C6A",
"4  c #1B3E70",
"5  c #1C3E70",
"6  c #1D3E71",
"7  c #1E3F72",
"8  c #222B63",
"9  c #2C3763",
"0  c #2B3866",
"q  c #2E3A6A",
"w  c #2E3A6E",
"e  c #283271",
"r  c #2D3679",
"t  c #313D71",
"y  c #334254",
"u  c #3D4253",
"i  c #1F4377",
"p  c #1F457D",
"a  c #1F467E",
"s  c #234374",
"d  c #50545C",
"f  c #6E6B65",
"g  c #746E65",
"h  c #716E6A",
"j  c #656A74",
"k  c #70747B",
"l  c #867F75",
"z  c #323A82",
"x  c #353D88",
"c  c #214A85",
"v  c #214A86",
"b  c #374480",
"n  c #314784",
"m  c #324885",
"M  c #3F4C86",
"N  c #3F4D87",
"B  c #37438A",
"V  c #37408D",
"C  c #38418F",
"Z  c #3B478F",
"A  c #354C88",
"S  c #26518F",
"D  c #3A4596",
"F  c #3C4896",
"G  c #3C4698",
"H  c #3E489E",
"J  c #3F4C9E",
"K  c #28599F",
"L  c #2A5A9F",
"P  c #2F62AE",
"I  c #3261AA",
"U  c #2F65B0",
"Y  c #2F67B7",
"T  c #3369B8",
"R  c #434F9E",
"E  c #425692",
"W  c #445196",
"Q  c #495597",
"!  c #47539A",
"~  c #47529D",
"^  c #4A549C",
"/  c #4D579E",
"(  c #5E6696",
")  c #404CA1",
"_  c #414AA4",
"`  c #414BA5",
"'  c #4C56A3",
"]  c #5057A2",
"[  c #515DA2",
"{  c #5158A4",
"}  c #505AA4",
"|  c #505AA7",
" . c #525CA4",
".. c #4A65AB",
"X. c #5B64AC",
"o. c #5D65AE",
"O. c #436FB0",
"+. c #636BB3",
"@. c #646BB5",
"#. c #626FB6",
"$. c #6A73B6",
"%. c #6A70BB",
"&. c #747BBA",
"*. c #7187BE",
"=. c #6882C8",
"-. c #7781C9",
";. c #8B90BF",
":. c #898DCD",
">. c #9199CF",
",. c #848DD2",
"<. c #979AD6",
"1. c #9EA3C3",
"2. c #94A8D7",
"3. c #97A1DD",
"4. c #B6B8EA",
"5. c #BDC2E5",
"6. c #BCC2E8",
"7. c #DCDCDB",
"8. c #C4C6EE",
"9. c #D8DCF0",
"0. c #E9E9E9",
"q. c #F1F1F1",
"w. c gray98",
"e. c None",
/* pixels */
"e.e.e.e.e.T Y Y T e.e.e.e.e.e.e.",
"e.e.e.P =.3.4.8.6.2.U e.e.e.e.e.",
"e.e.I ,.&.w % $ 9 1.9.O.e.e.e.e.",
"e.K -.Q 8 : u j > & ( 5.K e.e.e.",
"e...+.e * e.7.w.0.d : :.*.e.e.e.",
"S #.B 0 e.e.e.w.q.e., b >.S e.e.",
"c %.x - e.e.e.e.e.e.= r <.v e.e.",
"p @.C 1 e.e.e.e.e.e.1 z ,.s e.e.",
"i  .F t e.e.e.e.e.e.q F $.s e.e.",
"e.A  .D e.e.e.e.e.e.x o.E e.e.e.",
"e.6 / R H N e.e.E D ~ X.3 e.e.e.",
"e.e.i ^ ' ) _ _ G {  .s k O e.e.",
"e.e.e.4 n W ] { ! m 2 y h l o e.",
"e.e.e.e.e.6 4 4 6 e.e.. @ f g X ",
"e.e.e.e.e.e.e.e.e.e.e.e.  + #   ",
"e.e.e.e.e.e.e.e.e.e.e.e.e.      "
};
