/* XPM */
static char *folder_16x16[] = {
/* columns rows colors chars-per-pixel */
"16 16 147 2 ",
"   c #204A87",
".  c #214B88",
"X  c #224B88",
"o  c #224C89",
"O  c #234D89",
"+  c #234D8A",
"@  c #244E8B",
"#  c #28528D",
"$  c #28538E",
"%  c #295491",
"&  c #2E5893",
"*  c #2E5994",
"=  c #335E98",
"-  c #345E98",
";  c #39639D",
":  c #39649D",
">  c #3E69A1",
",  c #3E69A2",
"<  c #436EA6",
"1  c #446FA6",
"2  c #4874AB",
"3  c #4975AB",
"4  c #4E79AF",
"5  c #4E7AB0",
"6  c #537FB3",
"7  c #537FB4",
"8  c #5480B5",
"9  c #5481B5",
"0  c #5783B7",
"q  c #5A85B7",
"w  c #5783B8",
"e  c #5884B8",
"r  c #5885BA",
"t  c #5A86BA",
"y  c #5B87BA",
"u  c #5F89BB",
"i  c #5E8ABD",
"p  c #5D8ABE",
"a  c #5E8ABE",
"s  c #5F8BBE",
"d  c #5E8BBF",
"f  c #5F8CBF",
"g  c #608BBD",
"h  c #608CBF",
"j  c #638DBF",
"k  c #618CC0",
"l  c #628DC1",
"z  c #658EC0",
"x  c #648FC2",
"c  c #6390C2",
"v  c #7399C7",
"b  c #719BCA",
"n  c #729FCF",
"m  c #739FCF",
"M  c #799ECB",
"N  c #73A0CF",
"B  c #7DA4CE",
"V  c #74A0D0",
"C  c #74A1D0",
"Z  c #75A1D0",
"A  c #76A2D0",
"S  c #77A2D1",
"D  c #78A3D1",
"F  c #79A4D1",
"G  c #79A4D2",
"H  c #7AA4D2",
"J  c #7BA5D2",
"K  c #7CA6D2",
"L  c #7DA6D3",
"P  c #7DA7D3",
"I  c #7EA7D3",
"U  c #7FA8D3",
"Y  c #7FA8D4",
"T  c #80A8D4",
"R  c #80A9D4",
"E  c #81A9D4",
"W  c #82AAD4",
"Q  c #82AAD5",
"!  c #83ABD5",
"~  c #84ABD5",
"^  c #84ACD5",
"/  c #85ACD5",
"(  c #85ACD6",
")  c #86ADD6",
"_  c #87ADD6",
"`  c #87AED6",
"'  c #88AED6",
"]  c #88AED7",
"[  c #88AFD7",
"{  c #89AFD7",
"}  c #8AAFD7",
"|  c #8DAFD7",
" . c #8AB0D7",
".. c #8BB0D8",
"X. c #8BB1D8",
"o. c #8CB1D8",
"O. c #8DB1D8",
"+. c #8DB2D8",
"@. c #8EB2D9",
"#. c #8FB3D9",
"$. c #8FB4D9",
"%. c #91B4DA",
"&. c #92B5DA",
"*. c #93B6DA",
"=. c #97B5D8",
"-. c #94B6DB",
";. c #95B7DB",
":. c #96B7DB",
">. c #96B8DB",
",. c #97B8DC",
"<. c #98B9DC",
"1. c #99BADC",
"2. c #9ABBDD",
"3. c #9BBBDD",
"4. c #9CBCDD",
"5. c #9DBDDE",
"6. c #9FBEDE",
"7. c #A0BEDF",
"8. c #A0BFDF",
"9. c #A5BFDD",
"0. c #A1BFE0",
"q. c #A1C0DF",
"w. c #A2C0DF",
"e. c #A6C0DE",
"r. c #A7C1DF",
"t. c #ADC4DF",
"y. c #A1C0E0",
"u. c #A3C0E0",
"i. c #A3C1E0",
"p. c #A4C1E0",
"a. c #A8C2E0",
"s. c #AAC6E3",
"d. c #ADC7E4",
"f. c #B3CAE3",
"g. c #B7CDE5",
"h. c #BBD0E8",
"j. c #BCD1E8",
"k. c #BFD2E8",
"l. c #C5D7EB",
"z. c #C6D8EC",
"x. c #C6D9EC",
"c. c #C7D9EC",
"v. c #C8D9EC",
"b. c #C8DAEC",
"n. c #C8DAED",
"m. c #C9DAED",
"M. c None",
/* pixels */
"M.M.c l j a a a M.M.M.M.M.M.M.M.",
"M.j r.h.h.h.h.9.t M.M.M.M.M.M.M.",
"t 9.a.| | | o.=.x j a f a f a j ",
"6 t.M M M M v j g.m.z.b.z.z.h.w ",
"8 t t 8 t 8 u f.d.q.q.8.6.6.6.8 ",
"6 l.c.c.m.m.z.s.6.2.1.2.>.>.6.4 ",
"4 y.>.>.>.>.;.;.;.%.%.%.%.$.y.2 ",
"2 6.#.#.$.#.#.o.o.o.....} } y.< ",
"1 y. . .} } ' ' ) ) ) ( ( ( p.> ",
"> q.) ! E ( E E R R E K K K 8.; ",
": p.Y U Y P K K K K H G G A 1.= ",
"= 6.H H H A G A N A A V n n #.& ",
"& %.A V n n n n n n n n n m ( # ",
"% B ] ) ' ) ) ) ) ( E E K K b @ ",
"# @ o o o o X X           X X @ ",
"M.M.M.M.M.M.M.M.M.M.M.M.M.M.M.M."
};
