/* XPM */
static char *run_48x48[] = {
/* columns rows colors chars-per-pixel */
"48 48 76 1 ",
"  c #181B1D",
". c #262C2D",
"X c #2E3334",
"o c #2F3638",
"O c #303637",
"+ c #313739",
"@ c #343A3C",
"# c #393E3F",
"$ c #393F41",
"% c #3C4243",
"& c #404648",
"* c #454A4B",
"= c #4D5354",
"- c #505555",
"; c #55595A",
": c #595E5E",
"> c #5F6465",
", c #626666",
"< c #656A6A",
"1 c #6D7172",
"2 c #717574",
"3 c #727876",
"4 c #777B7B",
"5 c #7A7D7B",
"6 c #7E807D",
"7 c #80827E",
"8 c #7E8181",
"9 c #828584",
"0 c #868886",
"q c #878B8B",
"w c #8B8D8C",
"e c #8F918F",
"r c #8D9090",
"t c #949692",
"y c #979A95",
"u c #9A9C97",
"i c #979A98",
"p c #9B9D9B",
"a c #9EA19D",
"s c #A1A39E",
"d c #9FA1A0",
"f c #A3A5A2",
"g c #A6A8A5",
"h c #A8AAA6",
"j c #ABADAA",
"k c #AEB1AC",
"l c #B1B4AD",
"z c #AFB2B0",
"x c #B3B6B2",
"c c #B6B9B3",
"v c #B9BCB6",
"b c #BBBDBA",
"n c #BEC1BC",
"m c #C1C3BE",
"M c #C4C6C3",
"N c #C6C9C3",
"B c #C9CCC6",
"V c #CBCDCA",
"C c #CED2CB",
"Z c #D2D6CE",
"A c #D3D5D2",
"S c #D6D9D4",
"D c #D9DAD6",
"F c #DCDEDA",
"G c #DEE1DC",
"H c #E1E2DF",
"J c #E4E4E2",
"K c #E7E8E6",
"L c #E8E9E7",
"P c #EBEBEA",
"I c #EFF1EF",
"U c #F0F0EF",
"Y c #F4F4F3",
"T c #F8F8F7",
"R c #FAFBFA",
"E c None",
/* pixels */
"EEEEEEEEEEEEEEEEEEEEEEEEEEEEEEEEEEEEEEEEEEEEEEEE",
"EEEEEEEEEEEEEEEEEEEEE$%EEEEEEEEEEEEEEEEEEEEEEEEE",
"EEEEEEEEEEEEEE$$EEEE$xLb@EEEEEEEEEEEEEEEEEEEEEEE",
"EEEEEEEEEEEEE*bP-EEE$FSL$EEEEEEEEEEEEEEEEEEEEEEE",
"EEEEEEEEEEEEEdLAV$%@1VbV%EEEEEEEEEEEEEEEEEEEEEEE",
"EEEEEEEEEEEEE%DvMAPYLJAc$EEEEEEEEEEEEEEEEEEEEEEE",
"EEEEEEEEEEEEE+aDTFblvnDKA*o%p%EEEEEEEEEEEEEEEEEE",
"EEEEEEEEEEEEE*HPzjkklxcnFSpAJx$EEEEEEEEEEEEEEEEE",
"EEEEEEEEE@$%@DKkjlllxcvnnFCjVJ$EEEEEEEEEEEEEEEEE",
"EEEEEEEEEkHMxTcklxmCZCnnmMHmb=EEEEEEEEEEEEEEEEEE",
"EEEEEEEE$FAcSGklcBk1:mJNMMSB@EEEEEEEEEEEEEEEEEEE",
"EEEEEEEEojAMLmlxmn@EE@mHMBCG$EEEEEEEEEEEEEEEEEEE",
"EEEEEEEEEo$,PbccS:EEEE5YBVCG@EEEEEEEEEEEEEEEEEEE",
"EEEEEEEEEEE@YnvvG3EEEE,RCCAD>$+EEEEEEEEEEEEEEEEE",
"EEEEEEEEEEE$KNbnDn@EE@SICZDDbNd+EEEEEEEEEEEEEEEE",
"EEEEEEEEEEE$VFnmBIZ,6CRSZZDMfnV@EEEEEEEEEEEEEEEE",
"EEEEEEEEEE*xbPNMBCITRISSZSGakCpEEE+%EEEEEEEEEEEE",
"EEEEEEEEE$AngCHNBVVCZZZZZGm@%@+EE+bLb@EEEEEEEEEE",
"EEEEEEEEE@pAn0DJZBCZZZZAGV%xP=EEE$FSL$EEEEEEEEEE",
"EEEEEEEEEE%9$+&VHGGSZSGGm6<LSV@%@1VnV$EEEEEEEEEE",
"EEEEEEEEEEEEEEE+aNSGGDnxtc#AvMSPILHCc@EEEEEEEEEE",
"EEEEEEEEEEEEEEE$gaz;@@+fzM42FYFblnnGPA*O%p%EEEEE",
"EEEEEEEEEEEEEEE$nlx@EEE*br%gPljjllxxnGDaAJx$EEEE",
"EEEEEEEEEEEEEEE+exq+EE@@@@VKkjlllxvvvnGZjVJ$EEEE",
"EEEEEEEEEEEEEEEEE$+EEEjFxxTclllmCZCmnnmHMn=EEEEE",
"EEEEEEEEEEEEEEEEEEEEE$FAcSFjlcBj2:mJNmmSV@EEEEEE",
"EEEEEEEEEEEEEE$$$EEEE+jAMPMxcNv@EE@nHNBCF@EEEEEE",
"EEEEEEEEEEEE%cLP%EEEEo+$,PbccD:EEEE5YBVCG@EEEEEE",
"EEEEEEEEEEEE$JbM9EEE#5@E@UnvvH3EEEE,RCCZF,@+EEEE",
"EEEEEEEEEEEE$Nfaj+$%cAp@#KmnnDn@EE@SICCSAbNd+EEE",
"EEEEEEEEEEEE$jMDJSbgsuV3+CDnmNIA,6CRSZAGMfnV@EEE",
"EEEEEEEE%%$$0JmsuhMAupj@pbPNNNCPRRISZZAFdzVpEEEE",
"EEEEEEE+bJMzJftalljcZp$jmgAHNBBBZZZZZSFm@#@@EEEE",
"EEEEEEE%JbdMmtf9&eBnBc+pAn0AHZZZZZZZAFB&EEEEEEEE",
"EEEEEEE%PMdDfh0+E@pZNC+#8$O&VKGDSZSFFM9XEEEEEEEE",
"EEEEEEE$%qzJsn-EEE:JBD0,$+EE+pNDFHSnztc$EEEEEEEE",
"EEEEEEEEEE+Almu+E@lHZB6ug@EE@gpz;+#@slM5EEEEEEEE",
"EEEEEEEEEE@mmvDh:lLSSl5wu@EE@nxx@EEE*br$EEEEEEEE",
"EEEEEEEEEE%jAbNFPHDSZ7wg2XEE+qvq.EEE.$XEEEEEEEEE",
"EEEEEEEEE$msuZZVCSSZ1@@@+EEEE.@+EEEEEEEEEEEEEEEE",
"EEEEEEEEX9SuddvADBl9+EEEEEEEEEEEEEEEEEEEEEEEEEEE",
"EEEEEEEEE+fAj$O+076e+EEEEEEEEEEEEEEEEEEEEEEEEEEE",
"EEEEEEEEEE+3+EE ,pwg@EEEEEEEEEEEEEEEEEEEEEEEEEEE",
"EEEEEEEEEEE.EEEE@zp3@EEEEEEEEEEEEEEEEEEEEEEEEEEE",
"EEEEEEEEEEEEEEEEo@+.EEEEEEEEEEEEEEEEEEEEEEEEEEEE",
"EEEEEEEEEEEEEEEEEEEEEEEEEEEEEEEEEEEEEEEEEEEEEEEE",
"EEEEEEEEEEEEEEEEEEEEEEEEEEEEEEEEEEEEEEEEEEEEEEEE",
"EEEEEEEEEEEEEEEEEEEEEEEEEEEEEEEEEEEEEEEEEEEEEEEE"
};
